<?xml version='1.0' encoding='UTF-8' standalone='no'?>
<svg height="5.41867mm" viewBox="0 0 64 64" width="5.41867mm" xmlns:xlink="http://www.w3.org/1999/xlink" xmlns="http://www.w3.org/2000/svg" baseProfile="tiny" xmlns:cc="http://creativecommons.org/ns#" version="1.2">
 <defs/>
 <g fill="none" stroke-linecap="square" stroke="black" fill-rule="evenodd" stroke-width="1" stroke-linejoin="bevel">
  <g fill="none" font-weight="400" stroke-linecap="square" stroke="#000000" font-size="27.5" font-style="normal" stroke-width="1" stroke-linejoin="bevel" stroke-opacity="1" transform="matrix(1,0,0,1,0,0)" font-family="MS Shell Dlg 2"/>
  <g fill="none" font-weight="400" stroke-linecap="square" stroke="#000000" font-size="27.5" font-style="normal" stroke-width="1" stroke-linejoin="bevel" stroke-opacity="1" transform="matrix(1,0,0,1,0,0)" font-family="MS Shell Dlg 2"/>
  <g fill="none" font-weight="400" stroke-linecap="square" stroke="#000000" font-size="27.5" font-style="normal" stroke-width="1" stroke-linejoin="bevel" stroke-opacity="1" transform="matrix(11.811,0,0,11.811,0,0)" font-family="MS Shell Dlg 2"/>
  <g fill="none" font-weight="400" stroke-linecap="square" stroke="#000000" font-size="27.5" font-style="normal" stroke-width="1" stroke-linejoin="bevel" stroke-opacity="1" transform="matrix(1,0,0,1,0,0)" font-family="MS Shell Dlg 2"/>
  <g fill="#ffffff" font-weight="400" fill-opacity="1" stroke="none" font-size="27.5" font-style="normal" transform="matrix(1,0,0,1,0,0)" font-family="MS Shell Dlg 2">
   <path fill-rule="evenodd" d="M-2,-2 L66,-2 L66,66 L-2,66 L-2,-2" vector-effect="none"/>
  </g>
  <g fill="none" font-weight="400" stroke-linecap="square" stroke="#000000" font-size="27.5" font-style="normal" stroke-width="1" stroke-linejoin="bevel" stroke-opacity="1" transform="matrix(1,0,0,1,0,0)" font-family="MS Shell Dlg 2"/>
  <g fill="none" font-weight="400" stroke-linecap="square" stroke="#000000" font-size="27.5" font-style="normal" stroke-width="1" stroke-linejoin="bevel" stroke-opacity="1" transform="matrix(11.811,0,0,11.811,0,0)" font-family="MS Shell Dlg 2"/>
  <g fill="none" font-weight="400" stroke-linecap="square" stroke="#000000" font-size="27.5" font-style="normal" stroke-width="1" stroke-linejoin="bevel" stroke-opacity="1" transform="matrix(11.811,0,0,11.811,0,0)" font-family="MS Shell Dlg 2"/>
  <g fill="none" font-weight="400" stroke-linecap="square" stroke="#000000" font-size="27.5" font-style="normal" stroke-width="1" stroke-linejoin="bevel" stroke-opacity="1" transform="matrix(11.811,0,0,11.811,0,0)" font-family="MS Shell Dlg 2"/>
  <g fill="none" font-weight="400" stroke-linecap="square" stroke="#000000" font-size="27.5" font-style="normal" stroke-width="1" stroke-linejoin="bevel" stroke-opacity="1" transform="matrix(11.811,0,0,11.811,0,0)" font-family="MS Shell Dlg 2"/>
  <g fill="none" font-weight="400" stroke-linecap="square" stroke="#000000" font-size="27.5" font-style="normal" stroke-width="1" stroke-linejoin="bevel" stroke-opacity="1" transform="matrix(11.811,0,0,11.811,0,0)" font-family="MS Shell Dlg 2"/>
  <g fill="#ffffff" font-weight="400" fill-opacity="1" stroke="none" font-size="27.5" font-style="normal" transform="matrix(11.811,0,0,11.811,0,0)" font-family="MS Shell Dlg 2">
   <path fill-rule="evenodd" d="M0,0 L5.41867,0 L5.41867,5.41867 L0,5.41867 L0,0" vector-effect="none"/>
  </g>
  <g fill="none" font-weight="400" stroke-linecap="square" stroke="#000000" font-size="27.5" font-style="normal" stroke-width="1" stroke-linejoin="bevel" stroke-opacity="1" transform="matrix(11.811,0,0,11.811,0,0)" font-family="MS Shell Dlg 2"/>
  <g fill="none" font-weight="400" stroke-linecap="square" stroke="#000000" font-size="27.5" font-style="normal" stroke-width="1" stroke-linejoin="bevel" stroke-opacity="1" transform="matrix(11.811,0,0,11.811,0,0)" font-family="MS Shell Dlg 2"/>
  <g fill="#000000" font-weight="400" fill-opacity="0" stroke="none" font-size="27.5" font-style="normal" transform="matrix(1,0,0,1,0,0)" font-family="MS Shell Dlg 2">
   <rect height="64" x="0" width="64" y="0"/>
  </g>
  <g fill="none" font-weight="400" stroke-linecap="square" stroke="#000000" font-size="27.5" font-style="normal" stroke-width="1" stroke-linejoin="bevel" stroke-opacity="1" transform="matrix(1,0,0,1,0,0)" font-family="MS Shell Dlg 2"/>
  <g fill="#000000" font-weight="400" stroke-linecap="square" fill-opacity="1" stroke="#232323" font-size="27.5" font-style="normal" stroke-width="3.07087" stroke-linejoin="bevel" stroke-opacity="0" transform="matrix(1,0,0,1,0,0)" font-family="MS Shell Dlg 2">
   <path fill-rule="evenodd" d="M29.3998,31.2477 L29.3998,31.3477 L29.4998,31.3477 L29.5998,31.3477 L29.5998,31.4477 L29.4998,31.4477 L29.3998,31.5477 L29.3998,31.6477 L29.2998,31.7477 L29.2998,31.8477 L29.1998,31.8477 L29.1998,31.9477 L29.1998,32.0477 L29.0998,32.0477 L29.0998,32.1477 L29.1998,32.1477 L29.1998,32.2477 L29.1998,32.3477 L29.1998,32.4477 L29.0998,32.4477 L29.0998,32.5477 L28.9998,32.5477 L28.9998,32.6477 L29.0998,32.6477 L28.9998,32.6477 L28.9998,32.7477 L29.0998,32.7477 L29.1998,32.7477 L29.1998,32.8477 L29.2998,32.8477 L29.2998,32.9477 L29.3998,33.0477 L29.2998,33.0477 L29.2998,33.1477 L29.2998,33.2477 L29.3998,33.2477 L29.3998,33.3477 L29.4998,33.3477 L29.4998,33.4477 L29.4998,33.5477 L29.5998,33.5477 L29.5998,33.6477 L29.6998,33.6477 L29.6998,33.7477 L29.7998,33.7477 L29.8998,33.7477 L29.9998,33.7477 L29.9998,33.8477 L29.9998,33.9477 L29.8998,34.0477 L29.9998,34.0477 L29.9998,34.1477 L29.9998,34.0477 L30.0998,34.0477 L30.1998,34.1477 L30.0998,34.1477 L30.1998,34.1477 L30.1998,34.2477 L30.2998,34.2477 L30.3998,34.2477 L30.4998,34.2477 L30.4998,34.3477 L30.5998,34.3477 L30.5998,34.2477 L30.5998,34.3477 L30.5998,34.4477 L30.5998,34.5477 L30.5998,34.6477 L30.4998,34.6477 L30.4998,34.7477 L30.3998,34.7477 L30.3998,34.8477 L30.2998,34.8477 L30.2998,34.9477 L30.1998,34.9477 L30.0998,34.9477 L30.0998,35.0477 L29.9998,35.0477 L29.8998,35.0477 L29.7998,35.0477 L29.6998,35.0477 L29.6998,35.1477 L29.5998,35.1477 L29.5998,35.2477 L29.4998,35.2477 L29.5998,35.2477 L29.4998,35.2477 L29.4998,35.3477 L29.3998,35.4477 L29.1998,35.5477 L28.9998,35.8477 L28.7998,35.9477 L28.3998,36.1477 L27.4998,36.2477 L27.5998,36.4477 L27.6998,36.6477 L27.7998,36.9477 L27.8998,37.2477 L27.9998,38.0477 L27.9998,38.2477 L28.0998,38.4477 L28.1998,38.6477 L28.1998,38.7477 L28.2998,39.0477 L28.3998,39.1477 L29.1998,40.1477 L29.8998,40.9477 L30.0998,41.2477 L30.0998,41.5477 L30.1998,41.8477 L30.1998,42.4477 L30.0998,43.2477 L30.0998,43.4477 L30.0998,44.0477 L29.9998,44.4477 L29.9998,44.5477 L29.2998,45.3477 L29.1998,45.5477 L29.1998,45.8477 L29.2998,46.1477 L29.2998,46.9477 L29.3998,47.6477 L29.5998,47.7477 L29.6998,47.7477 L30.0998,48.0477 L30.1998,48.1477 L30.5998,48.3477 L30.7998,48.4477 L30.6998,48.6477 L30.6998,48.8477 L30.6998,48.9477 L30.6998,49.0477 L30.7998,49.0477 L30.6998,49.0477 L30.6998,49.1477 L30.6998,49.2477 L30.7998,49.2477 L30.7998,49.3477 L30.8998,49.3477 L30.8998,49.4477 L30.7998,49.4477 L30.7998,49.5477 L30.8998,49.5477 L30.7998,49.5477 L30.7998,49.6477 L30.8998,49.5477 L30.8998,49.6477 L30.7998,49.6477 L30.8998,49.6477 L30.7998,49.6477 L30.8998,49.6477 L30.8998,49.7477 L30.7998,49.7477 L30.7998,49.8477 L30.7998,49.9477 L30.7998,50.0477 L30.7998,50.1477 L30.7998,50.2477 L30.7998,50.3477 L30.7998,50.4477 L30.6998,50.4477 L30.6998,50.5477 L30.6998,50.6477 L30.6998,50.7477 L30.6998,50.8477 L30.7998,50.8477 L30.7998,50.9477 L30.6998,50.9477 L30.7998,50.9477 L30.7998,51.0477 L30.7998,51.1477 L30.7998,51.2477 L30.8998,51.3477 L30.8998,51.4477 L30.8998,51.5477 L30.8998,51.6477 L30.8998,51.7477 L30.8998,51.8477 L30.9998,51.9477 L30.9998,52.0477 L31.0998,52.0477 L31.0998,52.1477 L31.1998,52.1477 L31.2998,52.2477 L31.3998,52.2477 L31.3998,52.3477 L31.4998,52.3477 L31.3998,52.3477 L31.3998,52.4477 L31.2998,52.4477 L31.2998,52.5477 L31.1998,52.5477 L31.1998,52.6477 L31.1998,52.7477 L31.1998,52.8477 L31.2998,52.8477 L31.1998,52.9477 L31.2998,52.9477 L31.2998,53.0477 L31.2998,53.1477 L31.1998,53.1477 L31.2998,53.1477 L31.2998,53.2477 L31.2998,53.1477 L31.3998,53.1477 L31.3998,53.2477 L31.4998,53.2477 L31.4998,53.3477 L31.4998,53.4477 L31.3998,53.4477 L31.3998,53.5477 L31.3998,53.6477 L31.4998,53.6477 L31.4998,53.7477 L31.4998,53.8477 L31.4998,53.9477 L31.4998,54.0477 L31.3998,54.0477 L31.3998,54.1477 L31.3998,54.2477 L31.4998,54.2477 L31.4998,54.3477 L31.4998,54.4477 L31.4998,54.5477 L31.4998,54.6477 L31.3998,54.6477 L31.3998,54.5477 L31.2998,54.5477 L31.2998,54.4477 L31.2998,54.3477 L31.1998,54.3477 L31.2998,54.3477 L31.2998,54.4477 L31.2998,54.5477 L31.2998,54.6477 L31.1998,54.6477 L31.0998,54.6477 L31.0998,54.7477 L30.9998,54.7477 L30.8998,54.7477 L30.8998,54.8477 L30.8998,54.9477 L30.8998,55.0477 L30.8998,55.1477 L30.8998,55.2477 L30.9998,55.2477 L31.0998,55.2477 L31.0998,55.3477 L31.1998,55.3477 L31.2998,55.3477 L31.3998,55.3477 L31.4998,55.3477 L31.4998,55.2477 L31.5998,55.2477 L31.5998,55.3477 L31.6998,55.3477 L31.6998,55.4477 L31.6998,55.5477 L31.5998,55.5477 L31.5998,55.6477 L31.4998,55.6477 L31.4998,55.7477 L31.5998,55.7477 L31.5998,55.8477 L31.5998,55.9477 L31.6998,55.9477 L31.6998,56.0477 L31.5998,56.0477 L31.5998,56.1477 L31.6998,56.1477 L31.6998,56.2477 L31.5998,56.2477 L31.5998,56.3477 L31.4998,56.3477 L31.4998,56.4477 L31.3998,56.4477 L31.2998,56.5477 L31.3998,56.5477 L31.3998,56.6477 L31.4998,56.6477 L31.4998,56.7477 L31.5998,56.7477 L31.5998,56.8477 L31.6998,56.8477 L31.6998,56.9477 L31.6998,57.0477 L31.7998,57.0477 L31.6998,57.0477 L31.6998,57.1477 L31.6998,57.2477 L31.5998,57.2477 L31.5998,57.3477 L31.4998,57.3477 L31.3998,57.4477 L31.4998,57.4477 L31.4998,57.5477 L31.5998,57.5477 L31.5998,57.6477 L31.5998,57.7477 L31.4998,57.7477 L31.4998,57.8477 L31.3998,57.8477 L31.3998,57.9477 L31.2998,57.9477 L31.2998,58.0477 L31.2998,58.1477 L31.2998,58.2477 L31.1998,58.2477 L31.1998,58.1477 L31.0998,58.1477 L31.0998,58.0477 L30.9998,58.0477 L30.8998,58.0477 L30.8998,58.1477 L30.7998,58.1477 L30.6998,58.1477 L30.6998,58.2477 L30.6998,58.3477 L30.5998,58.3477 L30.5998,58.4477 L30.4998,58.4477 L30.3998,58.4477 L30.2998,58.4477 L30.1998,58.4477 L30.1998,58.5477 L30.0998,58.5477 L30.0998,58.6477 L29.9998,58.6477 L29.9998,58.5477 L29.9998,58.6477 L29.8998,58.6477 L29.7998,58.6477 L29.7998,58.7477 L29.6998,58.7477 L29.6998,58.8477 L29.5998,58.8477 L29.4998,58.8477 L29.4998,58.9477 L29.3998,58.9477 L29.3998,59.0477 L29.2998,59.0477 L29.2998,59.1477 L29.3998,59.1477 L29.3998,59.2477 L29.2998,59.2477 L29.2998,59.3477 L29.2998,59.4477 L29.3998,59.4477 L29.3998,59.5477 L29.4998,59.5477 L29.4998,59.6477 L29.4998,59.7477 L29.4998,59.8477 L29.4998,59.9477 L29.4998,60.0477 L29.5998,60.0477 L29.5998,60.1477 L29.6998,60.1477 L29.6998,60.2477 L29.7998,60.2477 L29.7998,60.3477 L29.6998,60.3477 L29.6998,60.4477 L29.5998,60.4477 L29.4998,60.4477 L29.3998,60.4477 L29.3998,60.5477 L29.3998,60.6477 L29.2998,60.6477 L29.1998,60.6477 L29.0998,60.5477 L29.0998,60.6477 L28.9998,60.6477 L28.9998,60.7477 L28.9998,60.8477 L28.8998,60.8477 L28.8998,60.9477 L28.7998,60.9477 L28.6998,60.9477 L28.5998,60.9477 L28.5998,61.0477 L28.4998,61.0477 L28.3998,61.0477 L28.3998,61.1477 L28.2998,61.1477 L28.1998,61.1477 L28.1998,61.2477 L27.9998,61.2477 L27.9998,61.1477 L27.8998,61.1477 L27.8998,61.0477 L27.8998,60.9477 L27.7998,60.9477 L27.7998,60.8477 L27.6998,60.8477 L27.6998,60.7477 L27.5998,60.6477 L27.5998,60.5477 L27.4998,60.5477 L27.3998,60.5477 L27.2998,60.5477 L27.1998,60.4477 L27.1998,60.3477 L27.1998,60.2477 L27.0998,60.2477 L27.0998,60.1477 L27.0998,60.0477 L26.9998,60.1477 L26.8998,60.1477 L26.7998,60.0477 L26.7998,60.1477 L26.6998,60.1477 L26.5998,60.1477 L26.4998,60.1477 L26.3998,60.1477 L26.2998,60.1477 L26.1998,60.1477 L26.0998,60.1477 L25.9998,60.1477 L25.9998,60.2477 L25.8998,60.1477 L25.7998,60.1477 L25.6998,60.1477 L25.5998,60.1477 L25.4998,60.2477 L25.4998,60.1477 L25.3998,60.1477 L25.2998,60.1477 L25.1998,60.0477 L25.1998,59.9477 L25.0998,59.9477 L25.0998,59.8477 L24.9998,59.8477 L24.9998,59.7477 L24.8998,59.7477 L24.7998,59.7477 L24.6998,59.7477 L24.5998,59.7477 L24.4998,59.7477 L24.4998,59.6477 L24.4998,59.7477 L24.3998,59.7477 L24.3998,59.8477 L24.3998,59.9477 L24.2998,59.9477 L24.3998,59.9477 L24.2998,59.9477 L24.2998,60.0477 L24.1998,60.0477 L24.1998,60.1477 L24.0998,60.1477 L23.9998,60.1477 L23.9998,60.2477 L23.8998,60.2477 L23.8998,60.3477 L23.7998,60.3477 L23.6998,60.3477 L23.5998,60.3477 L23.5998,60.4477 L23.5998,60.3477 L23.4998,60.3477 L23.3998,60.3477 L23.3998,60.2477 L23.2998,60.2477 L23.2998,60.3477 L23.1998,60.3477 L23.0998,60.3477 L23.0998,60.4477 L23.1998,60.4477 L23.0998,60.4477 L23.0998,60.5477 L23.0998,60.6477 L22.9998,60.6477 L22.9998,60.7477 L22.8998,60.7477 L22.8998,60.8477 L22.7998,60.8477 L22.6998,60.8477 L22.6998,60.7477 L22.7998,60.7477 L22.6998,60.7477 L22.5998,60.7477 L22.5998,60.6477 L22.5998,60.7477 L22.4998,60.7477 L22.4998,60.6477 L22.4998,60.7477 L22.4998,60.8477 L22.3998,60.7477 L22.3998,60.8477 L22.2998,60.7477 L22.1998,60.7477 L22.1998,60.6477 L22.0998,60.5477 L21.9998,60.5477 L21.8998,60.5477 L21.8998,60.6477 L21.7998,60.6477 L21.6998,60.6477 L21.6998,60.5477 L21.5998,60.6477 L21.4998,60.6477 L21.4998,60.7477 L21.3998,60.7477 L21.3998,60.8477 L21.3998,60.7477 L21.2998,60.7477 L21.1998,60.7477 L21.1998,60.8477 L21.0998,60.8477 L21.0998,60.7477 L20.9998,60.7477 L20.8998,60.7477 L20.8998,60.6477 L20.7998,60.6477 L20.6998,60.6477 L20.6998,60.5477 L20.6998,60.4477 L20.5998,60.4477 L20.5998,60.5477 L20.4998,60.5477 L20.3998,60.5477 L20.3998,60.4477 L20.2998,60.4477 L20.1998,60.4477 L20.1998,60.5477 L20.1998,60.6477 L20.0998,60.6477 L19.9998,60.6477 L19.8998,60.6477 L19.8998,60.7477 L19.8998,60.6477 L19.7998,60.6477 L19.6998,60.6477 L19.6998,60.7477 L19.6998,60.8477 L19.5998,60.8477 L19.5998,60.9477 L19.5998,60.8477 L19.4998,60.8477 L19.4998,60.9477 L19.4998,61.0477 L19.3998,61.0477 L19.3998,61.1477 L19.3998,61.2477 L19.2998,61.2477 L19.2998,61.3477 L19.1998,61.3477 L19.1998,61.4477 L19.0998,61.4477 L18.9998,61.4477 L18.9998,61.5477 L18.9998,61.4477 L18.8998,61.4477 L18.7998,61.4477 L18.6998,61.4477 L18.6998,61.5477 L18.6998,61.6477 L18.5998,61.6477 L18.4998,61.6477 L18.3998,61.6477 L18.2998,61.6477 L18.1998,61.6477 L18.1998,61.7477 L18.1998,61.8477 L18.0998,61.8477 L18.1998,61.8477 L18.0998,61.8477 L18.0998,61.9477 L17.9998,61.9477 L17.8998,61.9477 L17.7998,61.9477 L17.7998,61.8477 L17.7998,61.7477 L17.6998,61.7477 L17.5998,61.7477 L17.5998,61.6477 L17.6998,61.6477 L17.5998,61.6477 L17.5998,61.5477 L17.6998,61.5477 L17.6998,61.4477 L17.6998,61.3477 L17.7998,61.3477 L17.8998,61.3477 L17.8998,61.4477 L17.8998,61.3477 L17.9998,61.3477 L17.9998,61.2477 L18.0998,61.2477 L18.0998,61.1477 L18.1998,61.1477 L18.1998,61.0477 L18.0998,61.0477 L18.0998,60.9477 L17.9998,60.9477 L17.9998,60.8477 L18.0998,60.8477 L18.1998,60.8477 L18.1998,60.7477 L18.2998,60.7477 L18.2998,60.6477 L18.2998,60.5477 L18.2998,60.4477 L18.3998,60.3477 L18.4998,60.3477 L18.4998,60.2477 L18.3998,60.2477 L18.3998,60.1477 L18.4998,60.1477 L18.5998,60.1477 L18.6998,60.1477 L18.5998,60.1477 L18.5998,60.0477 L18.5998,59.9477 L18.6998,59.9477 L18.7998,59.8477 L18.6998,59.8477 L18.6998,59.7477 L18.7998,59.7477 L18.7998,59.6477 L18.7998,59.5477 L18.8998,59.5477 L18.8998,59.4477 L18.9998,59.4477 L18.8998,59.4477 L18.8998,59.3477 L18.8998,59.2477 L18.9998,59.1477 L19.0998,59.2477 L19.0998,59.1477 L19.0998,59.0477 L19.0998,58.9477 L19.1998,58.9477 L19.1998,58.8477 L19.2998,58.7477 L19.1998,58.7477 L19.0998,58.7477 L18.9998,58.7477 L18.8998,58.7477 L18.7998,58.7477 L18.7998,58.8477 L18.7998,58.7477 L18.7998,58.6477 L18.7998,58.5477 L18.7998,58.4477 L18.6998,58.4477 L18.5998,58.4477 L18.5998,58.3477 L18.4998,58.3477 L18.4998,58.2477 L18.4998,58.1477 L18.4998,58.0477 L18.5998,58.0477 L18.5998,57.9477 L18.5998,57.8477 L18.4998,57.8477 L18.3998,57.8477 L18.3998,57.7477 L18.2998,57.7477 L18.1998,57.6477 L18.0998,57.6477 L18.0998,57.7477 L17.9998,57.7477 L17.9998,57.6477 L17.8998,57.6477 L17.8998,57.7477 L17.7998,57.7477 L17.7998,57.6477 L17.7998,57.5477 L17.6998,57.5477 L17.5998,57.5477 L17.5998,57.4477 L17.6998,57.4477 L17.6998,57.3477 L17.5998,57.3477 L17.4998,57.3477 L17.4998,57.2477 L17.4998,57.1477 L17.5998,57.1477 L17.4998,57.1477 L17.5998,57.1477 L17.5998,57.0477 L17.5998,56.9477 L17.4998,56.9477 L17.4998,56.8477 L17.5998,56.8477 L17.5998,56.7477 L17.5998,56.6477 L17.4998,56.6477 L17.3998,56.6477 L17.2998,56.6477 L17.1998,56.6477 L17.1998,56.5477 L17.0998,56.5477 L17.0998,56.6477 L16.9998,56.6477 L16.9998,56.5477 L16.8998,56.5477 L16.8998,56.4477 L16.7998,56.4477 L16.7998,56.3477 L16.6998,56.3477 L16.7998,56.2477 L16.6998,56.1477 L16.5998,56.0477 L16.5998,55.9477 L16.4998,55.9477 L16.4998,55.8477 L16.3998,55.8477 L16.2998,55.8477 L16.1998,55.9477 L16.0998,55.9477 L16.0998,56.0477 L15.9998,56.0477 L15.9998,56.1477 L15.8998,56.1477 L15.8998,56.0477 L15.7998,56.0477 L15.7998,55.9477 L15.7998,55.8477 L15.6998,55.7477 L15.5998,55.7477 L15.4998,55.7477 L15.3998,55.7477 L15.2998,55.7477 L15.2998,55.6477 L15.1998,55.6477 L15.0998,55.6477 L14.9998,55.6477 L14.8998,55.7477 L14.7998,55.7477 L14.7998,55.6477 L14.7998,55.5477 L14.7998,55.4477 L14.7998,55.3477 L14.7998,55.2477 L14.7998,55.1477 L14.6998,55.1477 L14.6998,55.0477 L14.6998,54.9477 L14.6998,54.8477 L14.6998,54.7477 L14.6998,54.6477 L14.5998,54.6477 L14.5998,54.5477 L14.5998,54.4477 L14.4998,54.3477 L14.4998,54.2477 L14.4998,54.1477 L14.4998,54.0477 L14.4998,53.9477 L14.3998,53.8477 L14.4998,53.8477 L14.3998,53.8477 L14.3998,53.7477 L14.4998,53.7477 L14.3998,53.7477 L14.3998,53.6477 L14.3998,53.5477 L14.3998,53.4477 L14.3998,53.3477 L14.3998,53.2477 L14.2998,53.2477 L14.3998,53.2477 L14.3998,53.1477 L14.2998,53.1477 L14.2998,53.0477 L14.3998,53.0477 L14.2998,53.0477 L14.3998,53.0477 L14.3998,52.9477 L14.2998,52.9477 L14.3998,52.9477 L14.3998,52.8477 L14.3998,52.7477 L14.3998,52.6477 L14.4998,52.6477 L14.3998,52.6477 L14.4998,52.6477 L14.4998,52.5477 L14.5998,52.5477 L14.5998,52.4477 L14.5998,52.3477 L14.6998,52.3477 L14.6998,52.2477 L14.7998,52.2477 L14.7998,52.1477 L14.6998,52.1477 L14.6998,52.0477 L14.7998,52.0477 L14.7998,51.9477 L14.8998,51.9477 L14.8998,51.8477 L14.8998,51.7477 L14.8998,51.6477 L14.8998,51.5477 L14.8998,51.4477 L14.9998,51.4477 L14.8998,51.3477 L14.7998,51.3477 L14.8998,51.3477 L14.7998,51.3477 L14.7998,51.2477 L14.6998,51.2477 L14.6998,51.1477 L14.7998,51.1477 L14.6998,51.1477 L14.6998,51.0477 L14.6998,50.9477 L14.6998,51.0477 L14.7998,51.0477 L14.7998,50.9477 L14.6998,50.9477 L14.6998,50.8477 L14.7998,50.8477 L14.7998,50.9477 L14.8998,50.9477 L14.9998,50.9477 L15.0998,50.9477 L15.0998,51.0477 L15.1998,51.0477 L15.1998,51.1477 L15.1998,51.2477 L15.1998,51.3477 L15.1998,51.4477 L15.2998,51.4477 L15.2998,51.5477 L15.3998,51.5477 L15.4998,51.5477 L15.4998,51.4477 L15.5998,51.4477 L15.6998,51.4477 L15.6998,51.5477 L15.7998,51.5477 L15.8998,51.5477 L15.9998,51.5477 L16.0998,51.5477 L16.1998,51.5477 L16.2998,51.5477 L16.2998,51.6477 L16.3998,51.6477 L16.3998,51.5477 L16.4998,51.5477 L16.5998,51.5477 L16.6998,51.5477 L16.7998,51.5477 L16.8998,51.5477 L16.9998,51.5477 L16.9998,51.4477 L17.0998,51.4477 L17.1998,51.4477 L17.2998,51.4477 L17.2998,51.3477 L17.2998,51.2477 L17.2998,51.1477 L17.2998,51.0477 L17.2998,50.9477 L17.2998,50.8477 L17.2998,50.7477 L17.2998,50.6477 L17.2998,50.5477 L17.2998,50.4477 L17.2998,50.3477 L17.2998,50.2477 L17.2998,50.1477 L17.2998,50.0477 L17.2998,49.9477 L17.2998,49.8477 L17.2998,49.7477 L17.2998,49.5477 L17.2998,49.4477 L17.2998,49.3477 L17.2998,49.2477 L17.2998,49.1477 L17.2998,49.0477 L17.2998,48.9477 L17.2998,48.8477 L17.2998,48.7477 L17.2998,48.5477 L17.2998,48.3477 L17.2998,48.2477 L17.2998,48.0477 L17.2998,47.9477 L17.1998,47.9477 L17.1998,47.8477 L17.0998,47.8477 L17.0998,47.7477 L17.0998,47.6477 L16.9998,47.6477 L16.9998,47.5477 L16.9998,47.4477 L16.9998,47.3477 L16.9998,47.2477 L16.9998,47.1477 L17.0998,47.1477 L16.9998,47.1477 L16.9998,47.0477 L16.9998,46.9477 L16.8998,46.9477 L16.8998,46.8477 L16.9998,46.8477 L16.9998,46.7477 L16.9998,46.8477 L17.0998,46.8477 L17.0998,46.7477 L17.0998,46.8477 L17.1998,46.8477 L17.1998,46.7477 L17.2998,46.7477 L17.2998,46.8477 L17.3998,46.8477 L17.3998,46.9477 L17.4998,46.9477 L17.5998,46.8477 L17.6998,46.8477 L17.7998,46.8477 L17.8998,46.8477 L17.9998,46.8477 L18.0998,46.8477 L18.1998,46.8477 L18.1998,46.7477 L18.2998,46.7477 L18.2998,46.6477 L18.3998,46.6477 L18.3998,46.5477 L18.3998,46.4477 L18.3998,46.3477 L18.3998,46.2477 L18.3998,46.1477 L18.3998,46.0477 L18.2998,46.0477 L18.1998,46.0477 L18.1998,45.9477 L18.1998,45.8477 L18.2998,45.8477 L18.2998,45.7477 L18.3998,45.7477 L18.3998,45.6477 L18.3998,45.5477 L18.3998,45.4477 L18.3998,45.3477 L18.2998,45.3477 L18.2998,45.2477 L18.1998,45.2477 L18.1998,45.1477 L18.0998,45.1477 L17.9998,45.1477 L17.9998,45.0477 L17.9998,44.9477 L17.8998,44.9477 L17.8998,44.8477 L17.7998,44.8477 L17.7998,44.7477 L17.6998,44.7477 L17.5998,44.7477 L17.5998,44.6477 L17.4998,44.5477 L17.3998,44.5477 L17.2998,44.5477 L17.2998,44.4477 L17.1998,44.4477 L17.1998,44.3477 L17.0998,44.3477 L16.9998,44.3477 L16.9998,44.2477 L16.8998,44.2477 L16.7998,44.2477 L16.7998,44.1477 L16.6998,44.1477 L16.5998,44.1477 L16.4998,44.1477 L16.4998,44.0477 L16.3998,44.0477 L16.2998,44.0477 L16.1998,43.9477 L16.0998,43.9477 L15.8998,43.9477 L15.7998,43.9477 L15.6998,43.8477 L15.5998,43.8477 L15.5998,43.9477 L15.4998,43.9477 L15.3998,43.9477 L15.3998,43.8477 L15.0998,43.8477 L14.9998,43.8477 L14.8998,43.7477 L14.7998,43.7477 L14.8998,43.7477 L14.9998,43.7477 L14.9998,43.6477 L14.8998,43.6477 L14.9998,43.6477 L14.9998,43.5477 L14.9998,43.6477 L14.9998,43.5477 L15.0998,43.5477 L15.0998,43.4477 L15.0998,43.3477 L15.1998,43.3477 L15.1998,43.4477 L15.1998,43.3477 L15.0998,43.3477 L15.1998,43.3477 L15.1998,43.2477 L15.0998,43.2477 L15.0998,43.1477 L15.1998,43.1477 L15.1998,43.0477 L15.2998,43.0477 L15.2998,42.9477 L15.3998,42.9477 L15.3998,42.8477 L15.4998,42.8477 L15.5998,42.7477 L15.4998,42.7477 L15.4998,42.6477 L15.5998,42.6477 L15.5998,42.5477 L15.5998,42.4477 L15.6998,42.4477 L15.6998,42.3477 L15.7998,42.3477 L15.7998,42.2477 L15.8998,42.2477 L15.8998,42.1477 L15.8998,42.0477 L15.9998,42.0477 L15.9998,42.1477 L15.9998,42.0477 L16.0998,42.0477 L16.0998,41.9477 L15.9998,41.9477 L16.0998,41.9477 L16.0998,41.8477 L15.9998,41.8477 L15.9998,41.7477 L16.0998,41.7477 L16.1998,41.7477 L16.1998,41.6477 L16.0998,41.6477 L16.0998,41.5477 L16.0998,41.4477 L15.9998,41.4477 L15.8998,41.4477 L15.7998,41.4477 L15.7998,41.3477 L15.8998,41.3477 L15.7998,41.3477 L15.7998,41.2477 L15.7998,41.1477 L15.6998,41.1477 L15.7998,41.1477 L15.6998,41.1477 L15.6998,41.0477 L15.7998,41.0477 L15.6998,40.9477 L15.6998,40.8477 L15.7998,40.8477 L15.7998,40.7477 L15.8998,40.7477 L15.8998,40.6477 L15.9998,40.6477 L15.9998,40.5477 L16.0998,40.5477 L15.9998,40.4477 L16.0998,40.4477 L16.0998,40.3477 L16.0998,40.4477 L16.1998,40.4477 L16.1998,40.3477 L16.2998,40.3477 L16.2998,40.2477 L16.3998,40.1477 L16.3998,40.0477 L16.4998,40.0477 L16.5998,40.0477 L16.5998,39.9477 L16.5998,40.0477 L16.6998,40.0477 L16.6998,40.1477 L16.6998,40.2477 L16.5998,40.2477 L16.5998,40.3477 L16.6998,40.2477 L16.7998,40.2477 L16.7998,40.3477 L16.7998,40.2477 L16.8998,40.2477 L16.8998,40.1477 L16.8998,40.0477 L16.7998,40.0477 L16.7998,39.9477 L16.8998,39.9477 L16.8998,39.8477 L16.9998,39.8477 L16.9998,39.9477 L16.9998,39.8477 L17.0998,39.8477 L17.0998,39.7477 L17.1998,39.7477 L17.1998,39.8477 L17.2998,39.8477 L17.3998,39.8477 L17.3998,39.7477 L17.3998,39.8477 L17.3998,39.7477 L17.4998,39.7477 L17.4998,39.6477 L17.4998,39.5477 L17.5998,39.5477 L17.6998,39.4477 L17.5998,39.4477 L17.5998,39.3477 L17.6998,39.3477 L17.6998,39.4477 L17.6998,39.3477 L17.6998,39.2477 L17.7998,39.2477 L17.6998,39.2477 L17.6998,39.1477 L17.7998,39.1477 L17.7998,39.0477 L17.6998,39.0477 L17.6998,38.9477 L17.6998,38.6477 L17.5998,38.6477 L17.5998,38.7477 L17.4998,38.7477 L17.3998,38.7477 L17.2998,38.7477 L17.2998,38.6477 L17.2998,38.7477 L17.1998,38.7477 L17.0998,38.7477 L17.0998,38.6477 L17.0998,38.5477 L17.0998,38.4477 L17.0998,38.3477 L16.9998,38.3477 L16.8998,38.3477 L16.8998,38.2477 L16.7998,38.2477 L16.7998,38.3477 L16.7998,38.4477 L16.6998,38.4477 L16.6998,38.3477 L16.5998,38.3477 L16.5998,38.2477 L16.4998,38.1477 L16.3998,38.1477 L16.2998,38.1477 L16.2998,38.0477 L16.1998,38.0477 L16.1998,37.9477 L16.0998,37.9477 L15.9998,37.9477 L15.9998,37.8477 L15.9998,37.7477 L15.8998,37.7477 L15.8998,37.6477 L15.7998,37.6477 L15.7998,37.5477 L15.7998,37.4477 L15.6998,37.4477 L15.6998,37.3477 L15.6998,37.4477 L15.5998,37.4477 L15.5998,37.3477 L15.4998,37.3477 L15.4998,37.2477 L15.4998,37.1477 L15.3998,37.0477 L15.4998,37.0477 L15.4998,36.9477 L15.3998,36.9477 L15.3998,36.8477 L15.3998,36.7477 L15.2998,36.7477 L15.2998,36.6477 L15.2998,36.5477 L15.2998,36.4477 L15.2998,36.3477 L15.2998,36.2477 L15.2998,36.1477 L15.2998,36.0477 L15.2998,35.9477 L15.1998,35.9477 L15.1998,35.8477 L15.2998,35.8477 L15.2998,35.7477 L15.2998,35.6477 L15.3998,35.6477 L15.2998,35.6477 L15.2998,35.5477 L15.2998,35.4477 L15.2998,35.3477 L15.2998,35.2477 L15.2998,35.1477 L15.3998,35.1477 L15.4998,35.1477 L15.5998,35.1477 L15.5998,35.0477 L15.6998,35.0477 L15.6998,34.9477 L15.5998,34.9477 L15.6998,34.9477 L15.6998,34.8477 L15.6998,34.7477 L15.6998,34.6477 L15.6998,34.5477 L15.6998,34.4477 L15.7998,34.4477 L15.7998,34.3477 L15.7998,34.2477 L15.7998,34.1477 L15.7998,34.0477 L15.7998,33.9477 L15.7998,33.8477 L15.6998,33.8477 L15.5998,33.8477 L15.5998,33.7477 L15.4998,33.7477 L15.3998,33.7477 L15.2998,33.7477 L15.2998,33.6477 L15.1998,33.6477 L15.0998,33.6477 L14.9998,33.6477 L14.9998,33.5477 L14.9998,33.4477 L15.0998,33.4477 L15.1998,33.4477 L15.2998,33.4477 L15.2998,33.3477 L15.2998,33.2477 L15.2998,33.1477 L15.2998,33.0477 L15.2998,32.9477 L15.1998,32.9477 L15.1998,32.8477 L15.0998,32.7477 L15.0998,32.6477 L14.9998,32.6477 L14.9998,32.5477 L14.8998,32.5477 L14.8998,32.4477 L14.9998,32.4477 L14.9998,32.3477 L14.9998,32.2477 L14.9998,32.1477 L14.9998,32.0477 L15.0998,32.0477 L14.9998,32.0477 L15.0998,32.0477 L15.0998,31.9477 L15.0998,31.8477 L15.0998,31.7477 L15.0998,31.6477 L15.1998,31.6477 L15.1998,31.5477 L15.1998,31.4477 L15.2998,31.4477 L15.2998,31.3477 L15.2998,31.2477 L15.3998,31.2477 L15.2998,31.2477 L15.3998,31.2477 L15.3998,31.1477 L15.3998,31.0477 L15.4998,30.9477 L15.3998,30.9477 L15.4998,30.9477 L15.4998,30.8477 L15.4998,30.7477 L15.4998,30.6477 L15.3998,30.6477 L15.4998,30.6477 L15.3998,30.6477 L15.3998,30.5477 L15.4998,30.5477 L15.4998,30.4477 L15.4998,30.3477 L15.4998,30.2477 L15.4998,30.1477 L15.5998,30.1477 L15.5998,30.0477 L15.4998,30.0477 L15.4998,29.9477 L15.5998,29.9477 L15.5998,29.8477 L15.5998,29.7477 L15.5998,29.6477 L15.6998,29.6477 L15.6998,29.5477 L15.6998,29.4477 L15.6998,29.3477 L15.6998,29.2477 L15.6998,29.1477 L15.6998,29.0477 L15.6998,28.9477 L15.5998,28.9477 L15.6998,28.9477 L15.6998,28.8477 L15.7998,28.7477 L15.8998,28.7477 L15.8998,28.6477 L15.8998,28.5477 L15.9998,28.5477 L15.9998,28.4477 L15.9998,28.3477 L16.0998,28.3477 L16.0998,28.2477 L16.1998,28.2477 L16.2998,28.1477 L16.2998,28.0477 L16.3998,28.0477 L16.4998,28.0477 L16.4998,27.9477 L16.4998,28.0477 L16.5998,28.0477 L16.5998,27.9477 L16.6998,27.9477 L16.6998,27.8477 L16.7998,27.8477 L16.8998,27.8477 L16.8998,27.7477 L16.8998,27.6477 L16.8998,27.5477 L16.9998,27.5477 L16.9998,27.4477 L16.9998,27.3477 L17.0998,27.3477 L17.0998,27.2477 L17.1998,27.2477 L17.2998,27.2477 L17.2998,27.1477 L17.3998,27.1477 L17.4998,27.1477 L17.4998,27.0477 L17.5998,27.0477 L17.5998,26.9477 L17.6998,26.9477 L17.6998,26.8477 L17.6998,26.7477 L17.7998,26.7477 L17.7998,26.6477 L17.8998,26.6477 L17.8998,26.5477 L17.8998,26.4477 L17.9998,26.4477 L17.9998,26.3477 L18.0998,26.3477 L18.0998,26.2477 L18.1998,26.2477 L18.1998,26.1477 L18.2998,26.1477 L18.2998,26.0477 L18.2998,25.9477 L18.2998,25.8477 L18.3998,25.8477 L18.4998,25.7477 L18.5998,25.6477 L18.6998,25.6477 L18.6998,25.5477 L18.7998,25.5477 L18.8998,25.5477 L18.9998,25.4477 L18.9998,25.3477 L19.0998,25.3477 L19.0998,25.2477 L18.9998,25.2477 L18.9998,25.1477 L19.0998,25.1477 L19.1998,25.0477 L19.1998,24.9477 L19.2998,24.9477 L19.1998,24.9477 L19.1998,24.8477 L19.0998,24.7477 L19.0998,24.6477 L18.9998,24.6477 L18.8998,24.6477 L18.7998,24.6477 L18.7998,24.5477 L18.6998,24.5477 L18.6998,24.4477 L18.5998,24.4477 L18.5998,24.5477 L18.5998,24.4477 L18.4998,24.4477 L18.4998,24.3477 L18.3998,24.3477 L18.3998,24.2477 L18.3998,24.1477 L18.2998,24.1477 L18.2998,24.0477 L18.1998,24.0477 L18.2998,24.0477 L18.2998,24.1477 L18.1998,24.1477 L18.1998,24.2477 L18.0998,24.2477 L17.9998,24.2477 L17.9998,24.3477 L17.8998,24.3477 L17.8998,24.4477 L17.7998,24.4477 L17.7998,24.5477 L17.6998,24.5477 L17.5998,24.5477 L17.4998,24.5477 L17.3998,24.5477 L17.2998,24.5477 L17.1998,24.5477 L17.1998,24.6477 L17.1998,24.7477 L17.0998,24.7477 L17.0998,24.8477 L16.9998,24.9477 L16.9998,24.8477 L16.8998,24.8477 L16.7998,24.7477 L16.7998,24.8477 L16.6998,24.8477 L16.6998,24.9477 L16.5998,24.9477 L16.4998,24.9477 L16.4998,24.8477 L16.3998,24.8477 L16.2998,24.8477 L16.2998,24.9477 L16.1998,24.9477 L16.0998,25.0477 L16.0998,24.9477 L16.0998,25.0477 L15.9998,25.0477 L15.8998,25.0477 L15.8998,25.1477 L15.7998,25.0477 L15.6998,25.0477 L15.5998,25.0477 L15.4998,25.0477 L15.4998,25.1477 L15.3998,25.1477 L15.3998,25.0477 L15.2998,25.0477 L15.2998,24.9477 L15.1998,24.9477 L15.0998,24.9477 L15.0998,25.0477 L15.0998,25.1477 L14.9998,25.1477 L14.9998,25.2477 L14.8998,25.2477 L14.7998,25.2477 L14.7998,25.3477 L14.6998,25.3477 L14.5998,25.3477 L14.4998,25.4477 L14.3998,25.4477 L14.3998,25.3477 L14.2998,25.3477 L14.2998,25.4477 L14.2998,25.2477 L14.2998,25.1477 L14.2998,25.0477 L14.1998,24.5477 L14.1998,24.4477 L14.1998,24.3477 L14.2998,24.3477 L14.2998,24.2477 L14.2998,24.1477 L14.3998,24.0477 L14.3998,23.9477 L14.3998,23.8477 L14.4998,23.8477 L14.4998,23.7477 L14.3998,23.7477 L14.2998,23.6477 L14.2998,23.5477 L14.3998,23.5477 L14.3998,23.4477 L14.3998,23.3477 L14.2998,23.3477 L14.2998,23.2477 L14.3998,23.1477 L14.4998,23.1477 L14.5998,23.1477 L14.5998,23.0477 L14.6998,23.0477 L14.7998,23.0477 L14.8998,23.0477 L14.9998,23.0477 L15.0998,23.0477 L15.0998,22.9477 L15.1998,22.9477 L15.2998,22.9477 L15.3998,22.9477 L15.4998,22.8477 L15.4998,22.7477 L15.5998,22.6477 L15.5998,22.5477 L15.6998,22.5477 L15.7998,22.5477 L15.7998,22.4477 L16.0998,22.3477 L16.0998,22.2477 L16.0998,22.1477 L16.1998,22.1477 L16.2998,22.1477 L16.3998,22.1477 L16.4998,22.1477 L16.4998,22.0477 L16.5998,22.0477 L16.5998,21.9477 L16.5998,21.8477 L16.6998,21.8477 L16.6998,21.9477 L16.7998,21.9477 L16.7998,21.8477 L16.8998,21.8477 L16.9998,21.8477 L17.0998,21.8477 L17.1998,21.8477 L17.2998,21.8477 L17.2998,21.7477 L17.2998,21.6477 L17.2998,21.5477 L17.2998,21.4477 L17.2998,21.3477 L17.3998,21.2477 L17.4998,21.2477 L17.5998,21.2477 L17.6998,21.2477 L17.6998,21.1477 L17.7998,21.2477 L17.7998,21.1477 L17.7998,21.2477 L17.8998,21.1477 L17.8998,21.0477 L17.8998,20.9477 L17.9998,20.9477 L18.0998,20.9477 L17.9998,20.8477 L17.8998,20.8477 L17.8998,20.7477 L17.9998,20.7477 L18.0998,20.6477 L18.0998,20.5477 L18.1998,20.5477 L18.1998,20.4477 L18.2998,20.4477 L18.3998,20.4477 L18.3998,20.2477 L18.4998,20.0477 L18.4998,19.9477 L18.3998,19.8477 L18.4998,19.8477 L18.3998,19.7477 L18.3998,19.6477 L18.2998,19.6477 L18.2998,19.5477 L18.2998,19.4477 L18.2998,19.3477 L18.2998,19.2477 L18.2998,19.1477 L18.2998,19.0477 L18.2998,18.9477 L18.2998,18.8477 L18.2998,18.7477 L18.2998,18.6477 L18.1998,18.6477 L18.1998,18.5477 L18.2998,18.4477 L18.2998,18.3477 L18.2998,18.2477 L18.2998,18.1477 L18.2998,18.0477 L18.1998,18.0477 L18.2998,18.0477 L18.2998,17.9477 L18.3998,17.9477 L18.3998,17.8477 L18.4998,17.8477 L18.4998,17.7477 L18.5998,17.7477 L18.5998,17.6477 L18.6998,17.6477 L18.7998,17.6477 L18.8998,17.6477 L18.9998,17.6477 L19.0998,17.6477 L19.1998,17.6477 L19.1998,17.5477 L19.2998,17.5477 L19.2998,17.4477 L19.2998,17.2477 L19.3998,17.2477 L19.2998,17.2477 L19.1998,17.2477 L19.0998,17.2477 L18.9998,17.2477 L18.8998,17.2477 L18.8998,17.1477 L18.7998,17.1477 L18.8998,17.1477 L18.8998,17.0477 L18.8998,16.9477 L18.7998,16.9477 L18.7998,16.8477 L18.6998,16.8477 L18.5998,16.8477 L18.4998,16.8477 L18.4998,16.7477 L18.3998,16.7477 L18.3998,16.6477 L18.4998,16.6477 L18.3998,16.6477 L18.3998,16.5477 L18.2998,16.5477 L18.2998,16.4477 L18.2998,16.3477 L18.1998,16.3477 L18.0998,16.3477 L18.0998,16.2477 L18.1998,16.2477 L18.0998,16.2477 L18.0998,16.1477 L17.9998,16.1477 L17.9998,16.0477 L17.9998,15.9477 L17.8998,15.9477 L17.8998,15.8477 L17.9998,15.8477 L17.9998,15.7477 L17.9998,15.6477 L18.0998,15.6477 L18.0998,15.5477 L18.0998,15.4477 L18.1998,15.4477 L18.1998,15.3477 L18.2998,15.3477 L18.3998,15.3477 L18.4998,15.3477 L18.4998,15.2477 L18.4998,15.1477 L18.4998,15.0477 L18.5998,15.0477 L18.5998,14.9477 L18.5998,14.8477 L18.4998,14.8477 L18.3998,14.8477 L18.2998,14.8477 L18.1998,14.8477 L18.0998,14.8477 L17.9998,14.8477 L17.8998,14.8477 L17.8998,14.7477 L17.7998,14.7477 L17.7998,14.6477 L17.6998,14.6477 L17.6998,14.5477 L17.6998,14.4477 L17.5998,14.4477 L17.5998,14.3477 L17.5998,14.2477 L17.5998,14.1477 L17.4998,14.1477 L17.4998,14.0477 L17.3998,13.9477 L17.3998,13.8477 L17.2998,13.8477 L17.2998,13.7477 L17.2998,13.6477 L17.2998,13.5477 L17.2998,13.4477 L17.2998,13.3477 L17.3998,13.3477 L17.3998,13.2477 L17.3998,13.1477 L17.2998,13.1477 L17.2998,13.0477 L17.1998,12.9477 L17.0998,12.9477 L16.9998,12.9477 L16.9998,12.8477 L16.8998,12.8477 L16.7998,12.8477 L16.7998,12.7477 L16.6998,12.7477 L16.5998,12.7477 L16.5998,12.6477 L16.5998,12.5477 L16.5998,12.4477 L16.6998,12.3477 L16.6998,12.2477 L16.5998,12.2477 L16.4998,12.2477 L16.3998,12.2477 L16.2998,12.2477 L16.1998,12.2477 L16.0998,12.2477 L15.9998,12.2477 L15.8998,12.2477 L15.8998,12.1477 L15.7998,12.1477 L15.7998,12.0477 L15.6998,12.0477 L15.6998,11.9477 L15.5998,11.9477 L15.5998,11.8477 L15.4998,11.8477 L15.4998,11.7477 L15.3998,11.7477 L15.3998,11.8477 L15.3998,11.9477 L15.2998,11.9477 L15.2998,12.0477 L15.1998,12.0477 L15.1998,12.1477 L15.1998,12.2477 L15.0998,12.2477 L15.0998,12.3477 L15.0998,12.4477 L14.9998,12.4477 L14.9998,12.5477 L14.9998,12.6477 L14.8998,12.6477 L14.8998,12.7477 L14.7998,12.7477 L14.7998,12.6477 L14.6998,12.6477 L14.7998,12.6477 L14.7998,12.5477 L14.7998,12.4477 L14.7998,12.3477 L14.6998,12.3477 L14.6998,12.2477 L14.5998,12.2477 L14.5998,12.1477 L14.4998,12.1477 L14.4998,12.0477 L14.3998,12.0477 L14.3998,11.9477 L14.3998,11.8477 L14.2998,11.8477 L14.2998,11.7477 L14.3998,11.7477 L14.2998,11.7477 L14.2998,11.6477 L14.2998,11.5477 L14.2998,11.4477 L14.2998,11.3477 L14.2998,11.2477 L14.1998,11.2477 L14.1998,11.1477 L14.0998,11.1477 L14.1998,11.1477 L14.1998,11.0477 L14.0998,11.0477 L14.0998,10.9477 L14.0998,10.8477 L13.9998,10.8477 L13.9998,10.7477 L14.0998,10.7477 L13.9998,10.6477 L13.9998,10.5477 L13.9998,10.4477 L13.9998,10.3477 L13.9998,10.2477 L13.9998,10.1477 L13.9998,10.0477 L13.8998,10.0477 L13.8998,9.94773 L13.7998,9.94773 L13.7998,9.84773 L13.7998,9.74773 L13.7998,9.64773 L13.7998,9.54773 L13.6998,9.54773 L13.6998,9.44773 L13.5998,9.44773 L13.5998,9.34773 L13.4998,9.34773 L13.4998,9.24773 L13.4998,9.14773 L13.3998,9.14773 L13.3998,9.04773 L13.3998,8.94773 L13.2998,8.94773 L13.1998,8.94773 L13.0998,8.94773 L13.0998,8.84773 L12.9998,8.84773 L12.9998,8.74773 L12.8998,8.74773 L12.8998,8.64773 L12.8998,8.54773 L12.8998,8.44773 L12.7998,8.44773 L12.7998,8.34773 L12.7998,8.24773 L12.8998,8.24773 L12.8998,8.14773 L12.8998,8.04773 L12.9998,8.04773 L13.0998,8.04773 L13.0998,7.94773 L13.0998,7.84773 L13.0998,7.74773 L12.9998,7.74773 L12.9998,7.64773 L12.9998,7.54773 L12.8998,7.54773 L12.8998,7.44773 L12.8998,7.34773 L12.7998,7.34773 L12.7998,7.24773 L12.6998,7.24773 L12.5998,7.24773 L12.5998,7.14773 L12.5998,7.04773 L12.4998,7.04773 L12.5998,7.04773 L12.5998,6.94773 L12.6998,6.94773 L12.6998,6.84773 L12.6998,6.74773 L12.5998,6.74773 L12.5998,6.64773 L12.5998,6.54773 L12.6998,6.54773 L12.6998,6.44773 L12.7998,6.44773 L12.7998,6.34773 L12.8998,6.34773 L12.8998,6.44773 L12.9998,6.44773 L12.9998,6.34773 L13.0998,6.34773 L12.9998,6.34773 L12.9998,6.24773 L13.0998,6.24773 L13.1998,6.24773 L13.1998,6.14773 L13.1998,6.24773 L13.2998,6.24773 L13.2998,6.14773 L13.3998,6.24773 L13.4998,6.24773 L13.5998,6.24773 L13.6998,6.14773 L13.7998,6.14773 L13.8998,6.14773 L13.9998,6.14773 L14.0998,6.14773 L14.0998,6.04773 L14.1998,6.04773 L14.1998,5.94773 L14.2998,5.94773 L14.3998,5.94773 L14.4998,5.94773 L14.4998,5.84773 L14.3998,5.84773 L14.3998,5.74773 L14.4998,5.74773 L14.5998,5.74773 L14.5998,5.84773 L14.6998,5.84773 L14.6998,5.94773 L14.7998,6.04773 L14.7998,6.14773 L14.8998,6.14773 L14.7998,6.14773 L14.7998,6.24773 L14.8998,6.24773 L14.7998,6.24773 L14.6998,6.24773 L14.6998,6.34773 L14.7998,6.44773 L14.8998,6.44773 L14.8998,6.34773 L14.8998,6.44773 L14.9998,6.44773 L15.0998,6.44773 L14.9998,6.44773 L14.9998,6.34773 L15.0998,6.24773 L15.1998,6.24773 L15.2998,6.14773 L15.3998,6.14773 L15.3998,6.24773 L15.3998,6.34773 L15.4998,6.34773 L15.3998,6.34773 L15.3998,6.44773 L15.4998,6.44773 L15.5998,6.44773 L15.6998,6.44773 L15.7998,6.44773 L15.6998,6.54773 L15.5998,6.54773 L15.6998,6.54773 L15.7998,6.64773 L15.7998,6.54773 L15.7998,6.64773 L15.8998,6.64773 L15.9998,6.64773 L15.9998,6.54773 L16.0998,6.54773 L16.1998,6.54773 L16.1998,6.44773 L16.1998,6.34773 L16.0998,6.24773 L16.0998,6.14773 L16.0998,6.04773 L16.1998,6.04773 L16.1998,6.14773 L16.2998,6.14773 L16.2998,6.04773 L16.3998,6.04773 L16.4998,6.04773 L16.5998,6.04773 L16.6998,6.04773 L16.7998,6.04773 L16.6998,6.04773 L16.6998,5.94773 L16.7998,5.94773 L16.7998,5.84773 L16.8998,5.84773 L16.8998,5.94773 L16.9998,5.94773 L17.0998,5.94773 L17.1998,5.94773 L17.1998,5.84773 L17.1998,5.74773 L17.2998,5.74773 L17.1998,5.64773 L17.2998,5.64773 L17.2998,5.54773 L17.1998,5.54773 L17.1998,5.44773 L17.2998,5.44773 L17.1998,5.44773 L17.1998,5.34773 L17.1998,5.24773 L17.1998,5.14773 L17.2998,5.14773 L17.3998,5.14773 L17.4998,5.14773 L17.4998,5.04773 L17.3998,5.04773 L17.4998,5.04773 L17.4998,4.94773 L17.5998,4.94773 L17.6998,4.94773 L17.6998,4.84773 L17.7998,4.74773 L17.7998,4.84773 L17.6998,4.84773 L17.6998,4.94773 L17.7998,4.94773 L17.8998,4.94773 L17.9998,4.94773 L18.0998,4.94773 L18.0998,4.84773 L18.0998,4.94773 L18.1998,4.94773 L18.2998,4.94773 L18.3998,4.94773 L18.4998,4.94773 L18.4998,5.04773 L18.5998,5.04773 L18.5998,4.94773 L18.5998,5.04773 L18.5998,5.14773 L18.6998,5.14773 L18.7998,5.14773 L18.7998,5.24773 L18.8998,5.24773 L18.9998,5.24773 L18.9998,5.14773 L18.9998,5.24773 L19.0998,5.24773 L19.0998,5.14773 L19.1998,5.14773 L19.1998,5.24773 L19.1998,5.14773 L19.2998,5.14773 L19.2998,5.24773 L19.2998,5.14773 L19.3998,5.14773 L19.4998,5.14773 L19.5998,5.14773 L19.6998,5.14773 L19.7998,5.14773 L19.8998,5.14773 L19.9998,5.14773 L20.0998,5.14773 L20.0998,5.04773 L20.1998,5.04773 L20.2998,5.14773 L20.2998,5.24773 L20.3998,5.24773 L20.3998,5.34773 L20.3998,5.44773 L20.4998,5.44773 L20.4998,5.54773 L20.4998,5.44773 L20.5998,5.44773 L20.5998,5.54773 L20.6998,5.54773 L20.6998,5.64773 L20.7998,5.64773 L20.8998,5.64773 L20.9998,5.64773 L21.0998,5.64773 L21.1998,5.64773 L21.1998,5.74773 L21.2998,5.74773 L21.3998,5.74773 L21.3998,5.84773 L21.4998,5.84773 L21.4998,5.94773 L21.4998,6.04773 L21.5998,6.04773 L21.4998,6.04773 L21.5998,6.04773 L21.4998,6.04773 L21.5998,6.04773 L21.4998,6.14773 L21.4998,6.24773 L21.4998,6.34773 L21.4998,6.44773 L21.5998,6.44773 L21.5998,6.54773 L21.5998,6.64773 L21.6998,6.64773 L21.6998,6.74773 L21.7998,6.74773 L21.8998,6.84773 L21.9998,6.84773 L22.0998,6.84773 L22.0998,6.74773 L22.1998,6.74773 L22.2998,6.74773 L22.2998,6.64773 L22.2998,6.74773 L22.3998,6.74773 L22.3998,6.84773 L22.3998,6.94773 L22.3998,7.04773 L22.3998,7.14773 L22.4998,7.24773 L22.4998,7.34773 L22.3998,7.34773 L22.3998,7.44773 L22.3998,7.54773 L22.4998,7.54773 L22.4998,7.64773 L22.5998,7.64773 L22.6998,7.64773 L22.7998,7.64773 L22.8998,7.64773 L22.9998,7.64773 L22.9998,7.74773 L23.0998,7.74773 L23.0998,7.84773 L23.0998,7.94773 L23.1998,7.94773 L23.1998,8.04773 L23.1998,8.14773 L23.1998,8.24773 L23.2998,8.24773 L23.3998,8.34773 L23.4998,8.34773 L23.5998,8.34773 L23.6998,8.34773 L23.6998,8.24773 L23.7998,8.24773 L23.8998,8.24773 L23.9998,8.24773 L23.9998,8.34773 L24.0998,8.34773 L24.0998,8.44773 L24.1998,8.44773 L24.2998,8.54773 L24.3998,8.54773 L24.3998,8.44773 L24.4998,8.44773 L24.4998,8.34773 L24.4998,8.24773 L24.4998,8.14773 L24.4998,8.04773 L24.4998,7.94773 L24.4998,7.84773 L24.5998,7.84773 L24.6998,7.74773 L24.7998,7.64773 L24.8998,7.64773 L24.9998,7.64773 L24.9998,7.54773 L25.0998,7.54773 L25.0998,7.44773 L25.1998,7.44773 L25.2998,7.54773 L25.2998,7.64773 L25.3998,7.64773 L25.3998,7.74773 L25.4998,7.74773 L25.5998,7.84773 L25.6998,7.84773 L25.7998,7.74773 L25.8998,7.74773 L25.8998,7.84773 L25.9998,7.84773 L25.9998,7.94773 L26.0998,7.94773 L26.0998,8.04773 L26.1998,8.04773 L26.1998,8.14773 L26.1998,8.24773 L26.2998,8.24773 L26.2998,8.34773 L26.3998,8.34773 L26.4998,8.34773 L26.5998,8.34773 L26.5998,8.44773 L26.6998,8.44773 L26.6998,8.54773 L26.7998,8.54773 L26.7998,8.64773 L26.7998,8.74773 L26.8998,8.84773 L26.9998,8.84773 L27.0998,8.84773 L27.1998,8.84773 L27.1998,8.74773 L27.2998,8.74773 L27.3998,8.74773 L27.3998,8.64773 L27.4998,8.64773 L27.4998,8.74773 L27.5998,8.74773 L27.6998,8.74773 L27.7998,8.74773 L27.7998,8.64773 L27.8998,8.64773 L27.9998,8.64773 L28.0998,8.64773 L28.0998,8.54773 L28.1998,8.54773 L28.2998,8.54773 L28.3998,8.54773 L28.4998,8.54773 L28.5998,8.54773 L28.5998,8.64773 L28.6998,8.64773 L28.6998,8.54773 L28.6998,8.64773 L28.7998,8.64773 L28.8998,8.64773 L28.9998,8.64773 L29.0998,8.64773 L29.0998,8.54773 L29.0998,8.44773 L29.0998,8.34773 L29.1998,8.34773 L29.2998,8.34773 L29.2998,8.24773 L29.3998,8.24773 L29.3998,8.14773 L29.4998,8.14773 L29.5998,8.14773 L29.6998,8.14773 L29.7998,8.14773 L29.8998,8.04773 L29.8998,7.94773 L29.8998,7.84773 L29.7998,7.84773 L29.7998,7.74773 L29.7998,7.64773 L29.7998,7.54773 L29.8998,7.54773 L29.9998,7.54773 L29.9998,7.64773 L29.9998,7.74773 L30.0998,7.74773 L30.0998,7.64773 L30.1998,7.64773 L30.1998,7.74773 L30.2998,7.74773 L30.2998,7.64773 L30.3998,7.64773 L30.4998,7.64773 L30.5998,7.64773 L30.6998,7.64773 L30.6998,7.54773 L30.5998,7.54773 L30.5998,7.44773 L30.5998,7.34773 L30.4998,7.34773 L30.4998,7.24773 L30.4998,7.14773 L30.4998,7.04773 L30.5998,7.04773 L30.6998,6.94773 L30.7998,6.94773 L30.7998,6.84773 L30.6998,6.84773 L30.6998,6.74773 L30.6998,6.64773 L30.6998,6.54773 L30.7998,6.54773 L30.7998,6.44773 L30.7998,6.34773 L30.8998,6.34773 L30.8998,6.24773 L30.8998,6.14773 L30.9998,6.04773 L31.0998,6.04773 L31.0998,5.94773 L31.1998,5.84773 L31.1998,5.74773 L31.2998,5.74773 L31.3998,5.64773 L31.4998,5.64773 L31.4998,5.74773 L31.5998,5.74773 L31.5998,5.64773 L31.6998,5.64773 L31.7998,5.64773 L31.7998,5.54773 L31.7998,5.44773 L31.7998,5.34773 L31.7998,5.24773 L31.6998,5.24773 L31.6998,5.14773 L31.5998,5.14773 L31.5998,5.04773 L31.5998,4.94773 L31.6998,4.94773 L31.6998,4.84773 L31.7998,4.84773 L31.8998,4.74773 L31.9998,4.74773 L31.9998,4.64773 L32.0998,4.64773 L32.1998,4.64773 L32.2998,4.64773 L32.3998,4.54773 L32.3998,4.44773 L32.4998,4.44773 L32.5998,4.34773 L32.5998,4.24773 L32.6998,4.24773 L32.7998,4.24773 L32.8998,4.14773 L32.9998,4.14773 L32.9998,4.04773 L33.0998,4.04773 L33.0998,3.94773 L33.1998,3.84773 L33.2998,3.84773 L33.2998,3.74773 L33.2998,3.64773 L33.2998,3.54773 L33.2998,3.44773 L33.3998,3.44773 L33.3998,3.54773 L33.4998,3.54773 L33.5998,3.54773 L33.6998,3.54773 L33.7998,3.64773 L33.8998,3.64773 L33.8998,3.74773 L33.9998,3.74773 L34.0998,3.74773 L34.1998,3.74773 L34.2998,3.74773 L34.2998,3.64773 L34.3998,3.54773 L34.3998,3.44773 L34.4998,3.44773 L34.4998,3.34773 L34.5998,3.34773 L34.5998,3.24773 L34.6998,3.24773 L34.7998,3.14773 L34.8998,3.14773 L34.9998,3.14773 L34.9998,3.04773 L35.0998,3.04773 L35.0998,2.94773 L35.1998,2.84773 L35.2998,2.74773 L35.3998,2.74773 L35.3998,2.64773 L35.4998,2.54773 L35.4998,2.44773 L35.5998,2.44773 L35.5998,2.34773 L35.6998,2.24773 L35.6998,2.14773 L35.6998,2.04773 L35.7998,2.04773 L35.8998,2.04773 L35.8998,1.94773 L35.9998,1.94773 L35.9998,2.04773 L36.0998,2.04773 L36.0998,2.14773 L36.1998,2.14773 L36.2998,2.04773 L36.3998,2.04773 L36.3998,2.14773 L36.4998,2.14773 L36.5998,2.14773 L36.5998,2.24773 L36.5998,2.34773 L36.6998,2.34773 L36.7998,2.34773 L36.7998,2.44773 L36.8998,2.44773 L36.8998,2.54773 L36.9998,2.54773 L37.0998,2.54773 L37.0998,2.64773 L36.9998,2.64773 L36.9998,2.74773 L36.9998,2.84773 L36.8998,2.84773 L36.8998,2.94773 L36.9998,2.94773 L36.9998,3.04773 L36.9998,3.14773 L36.8998,3.14773 L36.8998,3.24773 L36.7998,3.24773 L36.7998,3.34773 L36.6998,3.44773 L36.5998,3.54773 L36.4998,3.54773 L36.4998,3.64773 L36.3998,3.64773 L36.3998,3.74773 L36.2998,3.74773 L36.2998,3.84773 L36.2998,3.94773 L36.2998,4.04773 L36.3998,4.14773 L36.3998,4.24773 L36.2998,4.24773 L36.2998,4.34773 L36.3998,4.44773 L36.3998,4.54773 L36.2998,4.54773 L36.2998,4.64773 L36.2998,4.74773 L36.1998,4.74773 L36.1998,4.84773 L36.0998,4.84773 L36.0998,4.94773 L35.9998,4.94773 L35.9998,5.04773 L35.8998,5.14773 L35.7998,5.14773 L35.6998,5.24773 L35.6998,5.34773 L35.5998,5.44773 L35.5998,5.54773 L35.4998,5.54773 L35.4998,5.64773 L35.3998,5.64773 L35.3998,5.74773 L35.2998,5.84773 L35.1998,5.84773 L35.0998,5.94773 L35.0998,6.04773 L35.1998,6.04773 L35.1998,6.14773 L35.2998,6.14773 L35.2998,6.24773 L35.3998,6.24773 L35.3998,6.34773 L35.3998,6.44773 L35.3998,6.54773 L35.3998,6.64773 L35.3998,6.74773 L35.2998,6.74773 L35.2998,6.84773 L35.1998,6.84773 L35.1998,6.94773 L35.0998,6.94773 L34.9998,6.94773 L34.9998,7.04773 L34.8998,7.04773 L34.8998,7.14773 L34.7998,7.14773 L34.8998,7.14773 L34.8998,7.24773 L34.8998,7.34773 L34.9998,7.34773 L34.8998,7.34773 L34.8998,7.44773 L34.7998,7.44773 L34.6998,7.54773 L34.6998,7.64773 L34.7998,7.74773 L34.7998,7.84773 L34.7998,7.94773 L34.7998,8.04773 L34.8998,8.14773 L34.7998,8.14773 L34.6998,8.14773 L34.6998,8.24773 L34.5998,8.24773 L34.5998,8.34773 L34.6998,8.34773 L34.6998,8.44773 L34.5998,8.44773 L34.5998,8.54773 L34.5998,8.64773 L34.4998,8.64773 L34.4998,8.74773 L34.4998,8.84773 L34.3998,8.84773 L34.3998,8.94773 L34.3998,9.04773 L34.4998,9.04773 L34.4998,9.14773 L34.5998,9.14773 L34.5998,9.24773 L34.6998,9.24773 L34.6998,9.34773 L34.6998,9.44773 L34.6998,9.54773 L34.6998,9.64773 L34.6998,9.74773 L34.6998,9.84773 L34.5998,9.84773 L34.4998,9.94773 L34.4998,10.0477 L34.5998,10.0477 L34.5998,10.1477 L34.4998,10.1477 L34.4998,10.2477 L34.4998,10.3477 L34.3998,10.3477 L34.3998,10.4477 L34.3998,10.5477 L34.3998,10.6477 L34.3998,10.7477 L34.3998,10.8477 L34.2998,10.8477 L34.2998,10.9477 L34.2998,11.0477 L34.2998,11.1477 L34.1998,11.1477 L34.1998,11.2477 L34.1998,11.3477 L34.2998,11.3477 L34.2998,11.4477 L34.2998,11.5477 L34.3998,11.5477 L34.3998,11.6477 L34.3998,11.7477 L34.3998,11.8477 L34.4998,11.8477 L34.4998,11.9477 L34.5998,11.9477 L34.5998,12.0477 L34.5998,12.1477 L34.6998,12.1477 L34.6998,12.2477 L34.6998,12.3477 L34.7998,12.3477 L34.7998,12.4477 L34.8998,12.4477 L34.8998,12.5477 L34.9998,12.5477 L34.9998,12.6477 L34.9998,12.7477 L34.9998,12.8477 L35.0998,12.8477 L35.0998,12.9477 L35.0998,13.0477 L35.0998,13.1477 L35.0998,13.2477 L34.9998,13.2477 L35.0998,13.2477 L35.0998,13.3477 L35.0998,13.4477 L35.0998,13.5477 L35.0998,13.6477 L34.9998,13.6477 L34.9998,13.7477 L34.9998,13.8477 L35.0998,13.8477 L35.0998,13.9477 L35.0998,14.0477 L35.0998,14.1477 L35.1998,14.1477 L35.1998,14.2477 L35.1998,14.3477 L35.1998,14.4477 L35.1998,14.5477 L35.1998,14.6477 L35.1998,14.7477 L35.0998,14.7477 L35.0998,14.8477 L35.0998,14.9477 L34.9998,14.9477 L34.9998,15.0477 L34.9998,15.1477 L34.9998,15.2477 L35.0998,15.2477 L35.0998,15.3477 L35.1998,15.4477 L35.1998,15.5477 L35.1998,15.6477 L35.1998,15.7477 L35.2998,15.7477 L35.2998,15.8477 L35.3998,15.9477 L35.4998,15.9477 L35.4998,16.0477 L35.5998,16.0477 L35.5998,15.9477 L35.6998,15.9477 L35.5998,15.9477 L35.5998,15.8477 L35.6998,15.8477 L35.6998,15.7477 L35.7998,15.7477 L35.7998,15.6477 L35.8998,15.6477 L35.8998,15.5477 L35.8998,15.6477 L35.9998,15.6477 L36.0998,15.6477 L36.0998,15.7477 L36.2998,15.7477 L36.2998,15.6477 L36.2998,15.5477 L36.2998,15.4477 L36.3998,15.4477 L36.3998,15.3477 L36.3998,15.2477 L36.2998,15.2477 L36.2998,15.1477 L36.1998,15.1477 L36.1998,15.0477 L36.2998,15.0477 L36.2998,14.9477 L36.3998,14.9477 L36.4998,14.8477 L36.5998,14.7477 L36.6998,14.6477 L36.6998,14.5477 L36.7998,14.5477 L36.7998,14.4477 L36.8998,14.4477 L36.8998,14.3477 L36.9998,14.3477 L37.0998,14.3477 L37.0998,14.2477 L37.1998,14.2477 L37.0998,14.2477 L37.0998,14.1477 L37.0998,14.0477 L37.0998,13.9477 L37.1998,13.9477 L37.1998,14.0477 L37.2998,14.0477 L37.3998,14.0477 L37.4998,14.0477 L37.4998,13.9477 L37.4998,13.8477 L37.4998,13.7477 L37.4998,13.6477 L37.5998,13.6477 L37.5998,13.7477 L37.5998,13.8477 L37.6998,13.8477 L37.6998,13.7477 L37.7998,13.7477 L37.7998,13.6477 L37.8998,13.6477 L37.8998,13.5477 L37.9998,13.5477 L37.9998,13.4477 L38.0998,13.4477 L38.0998,13.3477 L38.1998,13.3477 L38.2998,13.3477 L38.2998,13.2477 L38.3998,13.2477 L38.4998,13.1477 L38.5998,13.1477 L38.5998,13.0477 L38.6998,13.0477 L38.6998,12.9477 L38.7998,12.9477 L38.7998,12.8477 L38.8998,12.8477 L38.8998,12.7477 L38.9998,12.7477 L38.9998,12.6477 L39.0998,12.6477 L39.1998,12.6477 L39.2998,12.6477 L39.2998,12.5477 L39.3998,12.5477 L39.4998,12.5477 L39.5998,12.5477 L39.5998,12.6477 L39.5998,12.7477 L39.4998,12.7477 L39.3998,12.7477 L39.2998,12.7477 L39.2998,12.8477 L39.3998,12.8477 L39.4998,12.8477 L39.4998,12.9477 L39.4998,13.0477 L39.5998,13.0477 L39.5998,13.1477 L39.6998,13.0477 L39.7998,13.0477 L39.8998,13.0477 L40.1998,12.9477 L40.5998,12.9477 L40.6998,12.9477 L40.6998,12.8477 L40.7998,12.8477 L40.7998,12.9477 L40.8998,12.9477 L40.9998,12.9477 L41.0998,12.9477 L41.1998,13.0477 L41.2998,13.0477 L41.3998,13.0477 L41.3998,12.9477 L41.4998,12.9477 L41.5998,12.9477 L41.6998,12.9477 L41.7998,12.9477 L41.8998,12.9477 L41.9998,12.9477 L42.0998,13.0477 L42.1998,13.0477 L42.2998,13.0477 L42.3998,13.1477 L42.4998,13.1477 L42.5998,13.1477 L42.5998,13.2477 L42.6998,13.2477 L42.7998,13.3477 L42.8998,13.3477 L42.9998,13.4477 L43.1998,13.4477 L43.2998,13.4477 L43.3998,13.4477 L43.4998,13.5477 L43.5998,13.5477 L43.5998,13.4477 L43.6998,13.4477 L43.7998,13.4477 L43.8998,13.4477 L43.9998,13.4477 L44.0998,13.4477 L44.2998,13.3477 L44.5998,13.3477 L44.6998,13.2477 L44.8998,13.2477 L45.1998,13.1477 L45.2998,13.1477 L45.2998,13.2477 L45.3998,13.2477 L45.4998,13.1477 L45.5998,13.1477 L45.6998,13.1477 L45.6998,13.0477 L45.6998,12.9477 L45.5998,12.9477 L45.5998,12.8477 L45.6998,12.8477 L45.7998,12.8477 L45.8998,12.8477 L45.8998,12.9477 L45.9998,12.9477 L45.9998,13.0477 L46.0998,13.0477 L46.0998,12.9477 L45.9998,12.9477 L45.9998,12.8477 L46.0998,12.8477 L46.1998,12.8477 L46.1998,12.7477 L46.0998,12.7477 L46.0998,12.6477 L46.1998,12.6477 L46.1998,12.5477 L46.2998,12.5477 L46.2998,12.4477 L46.3998,12.4477 L46.4998,12.4477 L46.4998,12.5477 L46.5998,12.5477 L46.6998,12.5477 L46.7998,12.5477 L46.8998,12.5477 L46.8998,12.6477 L46.9998,12.6477 L47.0998,12.6477 L47.0998,12.5477 L47.1998,12.5477 L47.1998,12.4477 L47.2998,12.4477 L47.2998,12.5477 L47.3998,12.6477 L47.4998,12.6477 L47.4998,12.5477 L47.3998,12.5477 L47.3998,12.4477 L47.4998,12.4477 L47.5998,12.3477 L47.6998,12.3477 L47.7998,12.3477 L47.7998,12.4477 L47.8998,12.4477 L47.9998,12.4477 L48.0998,12.5477 L47.9998,12.5477 L47.8998,12.6477 L47.7998,12.6477 L47.7998,12.7477 L47.8998,12.7477 L47.9998,12.7477 L48.0998,12.7477 L47.9998,12.7477 L47.9998,12.8477 L47.9998,12.9477 L48.0998,12.9477 L48.1998,12.9477 L48.1998,12.8477 L48.2998,12.8477 L48.2998,12.9477 L48.2998,13.0477 L48.1998,13.0477 L48.1998,13.1477 L48.2998,13.1477 L48.2998,13.2477 L48.3998,13.2477 L48.3998,13.3477 L48.2998,13.3477 L48.2998,13.2477 L48.1998,13.2477 L48.1998,13.3477 L48.1998,13.4477 L48.1998,13.5477 L48.0998,13.5477 L48.1998,13.5477 L48.1998,13.6477 L48.1998,13.7477 L48.2998,13.7477 L48.3998,13.6477 L48.4998,13.6477 L48.4998,13.7477 L48.5998,13.7477 L48.5998,13.8477 L48.6998,13.8477 L48.6998,13.7477 L48.7998,13.7477 L48.8998,13.7477 L48.8998,13.6477 L48.9998,13.6477 L48.8998,13.6477 L48.9998,13.6477 L48.9998,13.5477 L49.0998,13.4477 L49.0998,13.3477 L49.1998,13.3477 L49.2998,13.3477 L49.2998,13.2477 L49.3998,13.2477 L49.4998,13.2477 L49.4998,13.3477 L49.5998,13.3477 L49.6998,13.3477 L49.7998,13.3477 L49.7998,13.2477 L49.7998,13.1477 L49.8998,13.1477 L49.8998,13.0477 L49.7998,13.0477 L49.7998,12.9477 L49.7998,12.8477 L49.7998,12.7477 L49.8998,12.7477 L49.7998,12.7477 L49.7998,12.6477 L49.8998,12.6477 L49.8998,12.7477 L49.9998,12.7477 L50.0998,12.7477 L50.0998,12.6477 L49.9998,12.6477 L49.9998,12.5477 L50.0998,12.5477 L50.1998,12.5477 L50.2998,12.5477 L50.2998,12.6477 L50.2998,12.7477 L50.2998,12.8477 L50.3998,12.8477 L50.3998,12.9477 L50.3998,13.0477 L50.4998,13.0477 L50.4998,13.1477 L50.4998,13.2477 L50.4998,13.3477 L50.5998,13.3477 L50.5998,13.4477 L50.5998,13.5477 L50.6998,13.5477 L50.6998,13.6477 L50.6998,13.7477 L50.7998,13.7477 L50.7998,13.8477 L50.8998,13.8477 L50.8998,13.9477 L50.8998,14.0477 L50.9998,14.0477 L50.9998,14.1477 L51.0998,14.2477 L51.0998,14.3477 L51.1998,14.3477 L51.1998,14.4477 L51.1998,14.5477 L51.2998,14.5477 L51.2998,14.6477 L51.2998,14.7477 L51.3998,14.7477 L51.3998,14.8477 L51.4998,14.8477 L51.4998,14.9477 L51.4998,15.0477 L51.4998,15.1477 L51.5998,15.1477 L51.5998,15.2477 L51.6998,15.2477 L51.6998,15.3477 L51.6998,15.4477 L51.6998,15.5477 L51.5998,15.5477 L51.5998,15.6477 L51.5998,15.7477 L51.5998,15.8477 L51.5998,15.9477 L51.5998,16.0477 L51.5998,16.1477 L51.5998,16.0477 L51.4998,16.0477 L51.3998,16.0477 L51.2998,16.0477 L51.1998,16.0477 L51.0998,16.0477 L50.9998,16.0477 L50.8998,16.0477 L50.8998,16.1477 L50.7998,16.1477 L50.8998,16.1477 L50.8998,16.2477 L50.9998,16.2477 L50.8998,16.2477 L50.8998,16.3477 L50.8998,16.4477 L50.7998,16.4477 L50.6998,16.4477 L50.5998,16.4477 L50.4998,16.4477 L50.3998,16.4477 L50.3998,16.5477 L50.2998,16.5477 L50.2998,16.6477 L50.1998,16.6477 L50.1998,16.7477 L50.0998,16.8477 L50.0998,16.9477 L49.9998,16.8477 L49.8998,16.8477 L49.7998,16.8477 L49.8998,16.9477 L49.8998,17.0477 L49.8998,17.1477 L49.9998,17.1477 L50.0998,17.1477 L49.9998,17.1477 L49.9998,17.2477 L49.8998,17.2477 L49.8998,17.3477 L49.8998,17.4477 L49.7998,17.4477 L49.6998,17.4477 L49.6998,17.5477 L49.5998,17.5477 L49.5998,17.6477 L49.4998,17.6477 L49.4998,17.7477 L49.3998,17.7477 L49.3998,17.8477 L49.3998,17.7477 L49.2998,17.7477 L49.1998,17.7477 L49.0998,17.7477 L49.0998,17.8477 L49.1998,17.9477 L49.1998,18.0477 L49.2998,18.0477 L49.2998,18.1477 L49.2998,18.2477 L49.2998,18.3477 L49.2998,18.4477 L49.2998,18.5477 L49.3998,18.5477 L49.3998,18.6477 L49.3998,18.7477 L49.4998,18.7477 L49.4998,18.8477 L49.5998,18.8477 L49.5998,18.9477 L49.6998,18.9477 L49.6998,19.0477 L49.7998,19.0477 L49.6998,19.0477 L49.6998,19.1477 L49.7998,19.1477 L49.7998,19.2477 L49.7998,19.3477 L49.6998,19.3477 L49.6998,19.4477 L49.5998,19.4477 L49.4998,19.4477 L49.4998,19.5477 L49.3998,19.5477 L49.2998,19.5477 L49.1998,19.5477 L49.1998,19.6477 L49.1998,19.7477 L49.2998,19.7477 L49.2998,19.8477 L49.3998,19.8477 L49.2998,19.8477 L49.3998,19.9477 L49.3998,20.0477 L49.3998,20.1477 L49.3998,20.2477 L49.3998,20.3477 L49.4998,20.3477 L49.4998,20.4477 L49.4998,20.5477 L49.5998,20.5477 L49.6998,20.5477 L49.6998,20.6477 L49.7998,20.6477 L49.8998,20.6477 L49.9998,20.6477 L49.9998,20.7477 L50.0998,20.7477 L50.1998,20.7477 L50.2998,20.7477 L50.2998,20.8477 L50.2998,20.7477 L50.3998,20.7477 L50.4998,20.7477 L50.4998,20.8477 L50.4998,20.9477 L50.3998,20.9477 L50.3998,21.0477 L50.2998,21.0477 L50.2998,21.1477 L50.2998,21.2477 L50.1998,21.2477 L50.1998,21.3477 L50.1998,21.4477 L50.1998,21.5477 L50.1998,21.6477 L50.2998,21.6477 L50.3998,21.6477 L50.3998,21.7477 L50.4998,21.7477 L50.5998,21.7477 L50.5998,21.8477 L50.5998,21.9477 L50.5998,22.0477 L50.4998,22.0477 L50.3998,22.0477 L50.2998,22.0477 L50.2998,22.1477 L50.1998,22.1477 L50.1998,22.2477 L50.1998,22.3477 L50.2998,22.3477 L50.2998,22.4477 L50.3998,22.4477 L50.3998,22.5477 L50.4998,22.6477 L50.4998,22.7477 L50.4998,22.8477 L50.5998,22.8477 L50.5998,22.9477 L50.6998,22.9477 L50.6998,23.0477 L50.6998,23.1477 L50.6998,23.2477 L50.6998,23.1477 L50.5998,23.1477 L50.4998,23.1477 L50.3998,23.1477 L50.3998,23.2477 L50.3998,23.3477 L50.2998,23.3477 L50.2998,23.4477 L50.2998,23.5477 L50.2998,23.6477 L50.1998,23.6477 L50.1998,23.7477 L50.1998,23.8477 L50.1998,23.9477 L50.1998,24.0477 L50.2998,24.0477 L50.1998,24.1477 L50.1998,24.2477 L50.0998,24.2477 L49.9998,24.2477 L49.8998,24.2477 L49.7998,24.2477 L49.6998,24.3477 L49.5998,24.3477 L49.5998,24.4477 L49.4998,24.4477 L49.3998,24.4477 L49.3998,24.3477 L49.2998,24.3477 L49.1998,24.3477 L49.1998,24.4477 L49.0998,24.4477 L49.0998,24.5477 L48.9998,24.5477 L48.9998,24.6477 L48.8998,24.6477 L48.8998,24.7477 L48.7998,24.7477 L48.8998,24.7477 L48.8998,24.8477 L48.8998,24.9477 L48.9998,24.9477 L49.0998,24.9477 L49.0998,25.0477 L49.1998,25.0477 L49.1998,25.1477 L49.1998,25.2477 L49.2998,25.3477 L49.1998,25.3477 L49.1998,25.4477 L49.1998,25.5477 L49.0998,25.5477 L49.0998,25.6477 L48.9998,25.6477 L48.9998,25.7477 L48.9998,25.8477 L48.9998,25.9477 L48.8998,25.9477 L48.8998,26.0477 L48.7998,26.0477 L48.7998,26.1477 L48.7998,26.2477 L48.6998,26.2477 L48.5998,26.2477 L48.5998,26.3477 L48.4998,26.3477 L48.3998,26.3477 L48.2998,26.3477 L48.2998,26.4477 L48.1998,26.4477 L48.1998,26.5477 L48.1998,26.6477 L48.0998,26.6477 L48.1998,26.7477 L48.1998,26.8477 L48.2998,26.8477 L48.2998,26.9477 L48.2998,27.0477 L48.2998,27.1477 L48.1998,27.1477 L48.0998,27.2477 L47.9998,27.2477 L47.9998,27.3477 L47.8998,27.3477 L47.8998,27.4477 L47.7998,27.4477 L47.6998,27.4477 L47.6998,27.5477 L47.6998,27.6477 L47.6998,27.7477 L47.5998,27.7477 L47.5998,27.8477 L47.4998,27.8477 L47.4998,27.9477 L47.3998,27.9477 L47.2998,27.9477 L47.1998,27.9477 L47.0998,27.9477 L47.0998,28.0477 L47.0998,28.1477 L46.9998,28.1477 L47.0998,28.1477 L47.0998,28.2477 L46.9998,28.2477 L46.8998,28.2477 L46.8998,28.3477 L46.7998,28.2477 L46.7998,28.1477 L46.7998,28.0477 L46.7998,27.9477 L46.7998,27.8477 L46.6998,27.8477 L46.5998,27.7477 L46.4998,27.6477 L46.3998,27.6477 L46.3998,27.5477 L46.2998,27.5477 L46.1998,27.5477 L46.1998,27.6477 L46.1998,27.7477 L46.1998,27.8477 L46.1998,27.9477 L46.0998,27.9477 L46.0998,28.0477 L45.9998,28.0477 L45.8998,28.0477 L45.7998,28.0477 L45.6998,28.0477 L45.5998,28.0477 L45.4998,28.0477 L45.3998,28.0477 L45.3998,28.1477 L45.2998,28.1477 L45.2998,28.2477 L45.1998,28.2477 L45.0998,28.2477 L44.9998,28.2477 L44.8998,28.2477 L44.7998,28.2477 L44.6998,28.2477 L44.6998,28.1477 L44.6998,28.2477 L44.6998,28.1477 L44.5998,28.1477 L44.4998,28.1477 L44.3998,28.1477 L44.2998,28.0477 L44.2998,27.9477 L44.1998,27.9477 L44.1998,28.0477 L44.0998,28.0477 L43.9998,28.0477 L43.8998,28.0477 L43.7998,28.0477 L43.7998,27.9477 L43.6998,27.9477 L43.6998,27.8477 L43.5998,27.8477 L43.4998,27.8477 L43.4998,27.7477 L43.3998,27.7477 L43.3998,27.8477 L43.3998,27.7477 L43.2998,27.7477 L43.2998,27.8477 L43.1998,27.8477 L43.1998,27.7477 L43.1998,27.8477 L43.0998,27.8477 L42.9998,27.8477 L42.8998,27.8477 L42.8998,27.7477 L42.7998,27.7477 L42.7998,27.8477 L42.6998,27.8477 L42.6998,27.7477 L42.5998,27.7477 L42.5998,27.6477 L42.5998,27.5477 L42.5998,27.4477 L42.4998,27.4477 L42.4998,27.3477 L42.4998,27.2477 L42.4998,27.1477 L42.3998,27.1477 L42.4998,27.1477 L42.4998,27.0477 L42.3998,27.0477 L42.3998,26.9477 L42.2998,26.9477 L42.2998,26.8477 L42.2998,26.7477 L42.2998,26.6477 L42.1998,26.6477 L42.1998,26.5477 L42.1998,26.6477 L42.1998,26.5477 L42.0998,26.5477 L41.9998,26.5477 L41.9998,26.4477 L41.8998,26.4477 L41.7998,26.4477 L41.6998,26.4477 L41.6998,26.3477 L41.5998,26.3477 L41.4998,26.3477 L41.4998,26.4477 L41.3998,26.4477 L41.2998,26.4477 L41.2998,26.5477 L41.1998,26.5477 L41.0998,26.5477 L40.9998,26.4477 L40.9998,26.5477 L40.9998,26.6477 L40.8998,26.6477 L40.8998,26.5477 L40.7998,26.5477 L40.6998,26.5477 L40.5998,26.5477 L40.4998,26.5477 L40.4998,26.4477 L40.3998,26.4477 L40.2998,26.4477 L40.2998,26.5477 L40.1998,26.5477 L40.1998,26.6477 L40.0998,26.6477 L39.9998,26.6477 L39.8998,26.6477 L39.7998,26.6477 L39.6998,26.6477 L39.6998,26.5477 L39.5998,26.5477 L39.5998,26.4477 L39.4998,26.4477 L39.4998,26.3477 L39.3998,26.3477 L39.3998,26.2477 L39.3998,26.1477 L39.2998,26.1477 L39.2998,26.0477 L39.1998,26.0477 L39.1998,25.9477 L39.0998,25.9477 L38.9998,25.9477 L38.8998,25.9477 L38.8998,25.8477 L38.7998,25.8477 L38.7998,25.7477 L38.6998,25.7477 L38.5998,25.7477 L38.5998,25.6477 L38.5998,25.5477 L38.4998,25.5477 L38.3998,25.5477 L38.2998,25.5477 L38.1998,25.5477 L38.0998,25.5477 L37.9998,25.5477 L37.8998,25.5477 L37.7998,25.5477 L37.7998,25.6477 L37.6998,25.6477 L37.6998,25.5477 L37.5998,25.5477 L37.5998,25.6477 L37.4998,25.6477 L37.3998,25.6477 L37.3998,25.5477 L37.2998,25.5477 L37.1998,25.4477 L37.0998,25.4477 L37.0998,25.3477 L36.9998,25.3477 L36.9998,25.2477 L36.8998,25.2477 L36.7998,25.2477 L36.7998,25.1477 L36.6998,25.1477 L36.5998,25.0477 L36.4998,25.0477 L36.4998,24.9477 L36.4998,24.8477 L36.3998,24.8477 L36.2998,24.8477 L36.1998,24.8477 L36.0998,24.8477 L36.0998,24.9477 L35.9998,24.9477 L35.8998,25.0477 L35.8998,25.1477 L35.7998,25.1477 L35.7998,25.2477 L35.7998,25.3477 L35.6998,25.3477 L35.5998,25.3477 L35.5998,25.4477 L35.4998,25.4477 L35.3998,25.3477 L35.2998,25.3477 L35.2998,25.2477 L35.1998,25.2477 L35.0998,25.2477 L35.0998,25.1477 L34.9998,25.1477 L34.9998,25.0477 L34.8998,25.0477 L34.7998,25.0477 L34.7998,24.9477 L34.6998,24.9477 L34.6998,24.8477 L34.5998,24.8477 L34.5998,24.7477 L34.4998,24.7477 L34.3998,24.7477 L34.3998,24.6477 L34.2998,24.6477 L34.1998,24.5477 L34.0998,24.5477 L34.0998,24.4477 L33.9998,24.4477 L33.8998,24.4477 L33.8998,24.3477 L33.7998,24.3477 L33.6998,24.3477 L33.6998,24.4477 L33.5998,24.5477 L33.6998,24.6477 L33.6998,24.7477 L33.5998,24.7477 L33.6998,24.8477 L33.5998,24.8477 L33.5998,24.9477 L33.5998,25.0477 L33.5998,25.1477 L33.5998,25.2477 L33.5998,25.3477 L33.5998,25.4477 L33.4998,25.4477 L33.4998,25.5477 L33.4998,25.7477 L33.4998,25.8477 L33.4998,25.9477 L33.4998,26.0477 L33.3998,26.0477 L33.3998,26.1477 L33.3998,26.2477 L33.3998,26.3477 L33.3998,26.4477 L33.3998,26.5477 L33.3998,26.6477 L33.2998,26.7477 L33.3998,26.7477 L33.3998,26.8477 L33.4998,26.8477 L33.4998,26.9477 L33.4998,27.0477 L33.4998,27.1477 L33.4998,27.2477 L33.3998,27.2477 L33.3998,27.3477 L33.2998,27.3477 L33.2998,27.4477 L33.1998,27.4477 L33.1998,27.5477 L33.1998,27.6477 L33.1998,27.7477 L33.2998,27.8477 L33.2998,27.9477 L33.2998,28.0477 L33.2998,28.1477 L33.2998,28.2477 L33.2998,28.3477 L33.2998,28.4477 L33.1998,28.4477 L33.1998,28.5477 L33.0998,28.5477 L33.0998,28.6477 L32.9998,28.6477 L32.9998,28.7477 L32.8998,28.7477 L32.7998,28.8477 L32.6998,28.8477 L32.6998,28.9477 L32.5998,28.9477 L32.5998,29.0477 L32.4998,29.0477 L32.3998,29.0477 L32.3998,29.1477 L32.2998,29.1477 L32.2998,29.2477 L32.1998,29.2477 L32.0998,29.2477 L31.9998,29.2477 L31.8998,29.2477 L31.8998,29.3477 L31.7998,29.3477 L31.8998,29.3477 L31.7998,29.3477 L31.6998,29.3477 L31.7998,29.4477 L31.6998,29.4477 L31.6998,29.5477 L31.5998,29.5477 L31.4998,29.5477 L31.3998,29.5477 L31.2998,29.5477 L31.2998,29.6477 L31.2998,29.5477 L31.2998,29.6477 L31.1998,29.6477 L31.1998,29.7477 L31.0998,29.7477 L30.9998,29.7477 L30.9998,29.8477 L30.8998,29.8477 L30.7998,29.8477 L30.7998,29.9477 L30.6998,29.9477 L30.6998,29.8477 L30.6998,29.7477 L30.5998,29.7477 L30.4998,29.6477 L30.3998,29.6477 L30.3998,29.7477 L30.2998,29.7477 L30.1998,29.7477 L30.1998,29.8477 L30.0998,29.8477 L30.0998,29.9477 L30.0998,30.0477 L29.9998,30.0477 L29.8998,30.0477 L29.7998,30.0477 L29.6998,30.0477 L29.6998,30.1477 L29.6998,30.2477 L29.6998,30.3477 L29.6998,30.4477 L29.6998,30.5477 L29.6998,30.6477 L29.6998,30.7477 L29.5998,30.7477 L29.5998,30.8477 L29.5998,30.9477 L29.4998,30.9477 L29.3998,30.9477 L29.3998,31.0477 L29.3998,31.1477 L29.2998,31.1477 L29.3998,31.1477 L29.3998,31.2477 L29.3998,31.2477 L29.3998,31.2477" vector-effect="none"/>
  </g>
  <g fill="none" font-weight="400" stroke-linecap="square" stroke="#000000" font-size="27.5" font-style="normal" stroke-width="1" stroke-linejoin="bevel" stroke-opacity="1" transform="matrix(1,0,0,1,0,0)" font-family="MS Shell Dlg 2"/>
  <g fill="none" font-weight="400" stroke-linecap="square" stroke="#000000" font-size="27.5" font-style="normal" stroke-width="1" stroke-linejoin="bevel" stroke-opacity="1" transform="matrix(11.811,0,0,11.811,0,0)" font-family="MS Shell Dlg 2"/>
  <g fill="none" font-weight="400" stroke-linecap="square" stroke="#000000" font-size="27.5" font-style="normal" stroke-width="1" stroke-linejoin="bevel" stroke-opacity="1" transform="matrix(11.811,0,0,11.811,0,0)" font-family="MS Shell Dlg 2"/>
  <g fill="none" font-weight="400" stroke-linecap="square" stroke="#000000" font-size="27.5" font-style="normal" stroke-width="1" stroke-linejoin="bevel" stroke-opacity="1" transform="matrix(11.811,0,0,11.811,0,0)" font-family="MS Shell Dlg 2"/>
  <g fill="none" font-weight="400" stroke-linecap="square" stroke="#000000" font-size="27.5" font-style="normal" stroke-width="1" stroke-linejoin="bevel" stroke-opacity="1" transform="matrix(1,0,0,1,0,0)" font-family="MS Shell Dlg 2"/>
  <g fill="none" font-weight="400" stroke-linecap="square" stroke="#000000" font-size="27.5" font-style="normal" stroke-width="1" stroke-linejoin="bevel" stroke-opacity="1" transform="matrix(11.811,0,0,11.811,0,0)" font-family="MS Shell Dlg 2"/>
  <g fill="none" font-weight="400" stroke-linecap="square" stroke="#000000" font-size="27.5" font-style="normal" stroke-width="1" stroke-linejoin="bevel" stroke-opacity="1" transform="matrix(11.811,0,0,11.811,0,0)" font-family="MS Shell Dlg 2"/>
  <g fill="none" font-weight="400" stroke-linecap="square" stroke="#000000" font-size="27.5" font-style="normal" stroke-width="1" stroke-linejoin="bevel" stroke-opacity="1" transform="matrix(11.811,0,0,11.811,0,0)" font-family="MS Shell Dlg 2"/>
  <g fill="none" font-weight="400" stroke-linecap="square" stroke="#000000" font-size="27.5" font-style="normal" stroke-width="1" stroke-linejoin="bevel" stroke-opacity="1" transform="matrix(11.811,0,0,11.811,0,0)" font-family="MS Shell Dlg 2"/>
  <g fill="none" font-weight="400" stroke-linecap="square" stroke="#000000" font-size="27.5" font-style="normal" stroke-width="1" stroke-linejoin="bevel" stroke-opacity="1" transform="matrix(1,0,0,1,0,0)" font-family="MS Shell Dlg 2"/>
 </g>
 <metadata>
  <rdf:RDF xmlns:rdf="http://www.w3.org/1999/02/22-rdf-syntax-ns#" xmlns:rdfs="http://www.w3.org/2000/01/rdf-schema#" xmlns:dc="http://purl.org/dc/elements/1.1/">
   <rdf:Description dc:identifier="" dc:date="2024-10-22T14:33:55" dc:description="" dc:format="image/svg+xml" dc:title="">
    <dc:creator>
     <rdf:Bag>
      <rdf:li>Caio Yamamoto Lellis</rdf:li>
     </rdf:Bag>
    </dc:creator>
    <dc:publisher>
     <rdf:Bag>
      <rdf:li>QGIS 3.38.2-Grenoble</rdf:li>
     </rdf:Bag>
    </dc:publisher>
    <dc:subject>
     <rdf:Bag/>
    </dc:subject>
   </rdf:Description>
   <cc:Work rdf:about="">
    <dc:format>image/svg+xml</dc:format>
    <dc:title></dc:title>
    <dc:date>2024-10-22T14:33:55</dc:date>
    <dc:identifier></dc:identifier>
    <dc:description></dc:description>
    <dc:creator>
     <cc:Agent>
      <dc:title>Caio Yamamoto Lellis</dc:title>
     </cc:Agent>
    </dc:creator>
    <dc:publisher>
     <cc:Agent>
      <dc:title>QGIS 3.38.2-Grenoble</dc:title>
     </cc:Agent>
    </dc:publisher>
   </cc:Work>
  </rdf:RDF>
 </metadata>
</svg>
